<?xml version="1.0" encoding="UTF-8"?>
<svg width="35px" height="21px" viewBox="0 0 35 21" version="1.1" xmlns="http://www.w3.org/2000/svg" xmlns:xlink="http://www.w3.org/1999/xlink">
    <!-- Generator: Sketch 48.2 (47327) - http://www.bohemiancoding.com/sketch -->
    <title>ambulance</title>
    <desc>Created with Sketch.</desc>
    <defs></defs>
    <g id="Select-Plan:-Deluxe-v4-collapse" stroke="none" stroke-width="1" fill="none" fill-rule="evenodd" transform="translate(-320.000000, -346.000000)">
        <g id="Highlights" transform="translate(15.000000, 261.000000)" fill="#898D97">
            <g id="mobility-aid" transform="translate(0.000000, 85.000000)">
                <g id="ambulance_POS" transform="translate(305.000000, 0.000000)">
                    <path d="M14.3466346,16.5174989 L32.9807692,16.5174989 L32.9807692,1.3083297 L14.3466346,1.3083297 L14.3466346,16.5174989 Z M28.4452538,19.6494767 C27.2919163,19.6494767 26.3191486,18.9706171 26.0210024,17.8258286 L30.8691755,17.8258286 C30.5710293,18.9706171 29.5985913,19.6494767 28.4452538,19.6494767 Z M8.34182596,19.6494767 C7.18848846,19.6494767 6.21605048,18.9706171 5.91806923,17.8258286 L10.7660774,17.8258286 C10.4679312,18.9706171 9.49516346,19.6494767 8.34182596,19.6494767 Z M32.667287,0 L14.5338005,0 C13.6118231,0 12.6975962,0.576155691 12.6975962,1.49035107 L12.6975962,5.39686001 L8.61325769,5.39686001 L4.15227885,9.81247274 L1.68861538,9.81247274 C0.766802885,9.81247274 0,10.4764501 0,11.390809 L0,15.045628 L1.31923077,15.045628 L1.31923077,11.1206389 L4.7164149,11.1206389 L9.17739375,6.70518971 L12.6975962,6.70518971 L12.6975962,16.5174989 L0,16.5174989 L0,17.8258286 L4.52430192,17.8258286 C4.84751346,19.6247819 6.43438317,21 8.34182596,21 C10.2497635,21 11.8366332,19.6247819 12.1598447,17.8258286 L24.6272351,17.8258286 C24.9506115,19.6247819 26.5373163,21 28.4452538,21 C30.3526966,21 31.9395663,19.6247819 32.2627779,17.8258286 L34.3,17.8258286 L34.3,1.49035107 C34.3,0.576155691 33.5890995,0 32.667287,0 Z M19.5176471,10.2528758 L19.5176471,8.11183253 L22.6470588,8.11183253 L22.6470588,4.98237474 L24.9529412,4.98237474 L24.9529412,8.11183253 L27.9176471,8.11183253 L27.9176471,10.2528758 L24.9529412,10.2528758 L24.9529412,13.3823336 L22.6470588,13.3823336 L22.6470588,10.2528758 L19.5176471,10.2528758 Z M21.3294118,13.4923587 C21.3294118,14.0823439 21.8078824,14.7 22.3978588,14.7 L25.2410118,14.7 C25.8309882,14.7 26.2705882,14.0823439 26.2705882,13.4923587 L26.2705882,11.5707069 L29.4,11.5707069 L29.4,6.62945779 L26.2705882,6.62945779 L26.2705882,4.59119252 C26.2705882,4.00120737 25.8309882,3.5 25.2410118,3.5 L22.3978588,3.5 C21.8078824,3.5 21.3294118,4.00120737 21.3294118,4.59119252 L21.3294118,6.62945779 L18.2,6.62945779 L18.2,11.5707069 L21.3294118,11.5707069 L21.3294118,13.4923587 Z" id="ambulance"></path>
                </g>
            </g>
        </g>
    </g>
</svg>