<?xml version="1.0" encoding="UTF-8"?>
<svg width="32px" height="21px" viewBox="0 0 32 21" version="1.1" xmlns="http://www.w3.org/2000/svg" xmlns:xlink="http://www.w3.org/1999/xlink">
    <!-- Generator: Sketch 48.2 (47327) - http://www.bohemiancoding.com/sketch -->
    <title>cash</title>
    <desc>Created with Sketch.</desc>
    <defs></defs>
    <g id="Select-Plan:-Deluxe-v4-collapse" stroke="none" stroke-width="1" fill="none" fill-rule="evenodd" transform="translate(-322.000000, -260.000000)">
        <g id="Highlights" transform="translate(15.000000, 261.000000)" fill="#898D97" fill-rule="nonzero">
            <g id="promo">
                <g id="cashback-icon" transform="translate(308.000000, 0.000000)">
                    <path d="M0.75,18.25 L30,18.25 L30,19.75 L-0.75,19.75 L-0.75,-0.75 L30.75,-0.75 L30.75,15.4375 L29.25,15.4375 L29.25,0.75 L0.75,0.75 L0.75,18.25 Z M26.1346154,8.3125 L24.6346154,8.3125 L24.6346154,7.578625 C24.6346154,7.08202739 24.2512689,6.6875 23.79,6.6875 L22.3638462,6.6875 C21.9025772,6.6875 21.5192308,7.08202739 21.5192308,7.578625 C21.5192308,7.74949407 21.6106703,7.901635 21.7504757,7.97336489 L25.090506,9.69208947 C25.7328144,10.0235856 26.1346154,10.6926581 26.1346154,11.421375 C26.1346154,12.7369024 25.0895003,13.8125 23.79,13.8125 L22.3638462,13.8125 C21.0643459,13.8125 20.0192308,12.7369024 20.0192308,11.421375 L20.0192308,10.6875 L21.5192308,10.6875 L21.5192308,11.421375 C21.5192308,11.9179726 21.9025772,12.3125 22.3638462,12.3125 L23.79,12.3125 C24.2512689,12.3125 24.6346154,11.9179726 24.6346154,11.421375 C24.6346154,11.2502642 24.5428289,11.0974229 24.4033705,11.0254476 L21.0649408,9.30754674 C20.421667,8.97750519 20.0192308,8.30791499 20.0192308,7.578625 C20.0192308,6.26309761 21.0643459,5.1875 22.3638462,5.1875 L23.79,5.1875 C25.0895003,5.1875 26.1346154,6.26309761 26.1346154,7.578625 L26.1346154,8.3125 Z M23.8269231,5.9375 L22.3269231,5.9375 L22.3269231,3.5625 L23.8269231,3.5625 L23.8269231,5.9375 Z M23.8269231,15.4375 L22.3269231,15.4375 L22.3269231,13.0625 L23.8269231,13.0625 L23.8269231,15.4375 Z M3.46153846,5.5 L3.46153846,4 L15,4 L15,5.5 L3.46153846,5.5 Z M3.46153846,9.0625 L3.46153846,7.5625 L11.5384615,7.5625 L11.5384615,9.0625 L3.46153846,9.0625 Z M9.59226259,12.752934 C9.58104133,12.7512829 9.57104527,12.7503764 9.56179922,12.7500957 C9.63675358,12.7500878 9.65111731,12.7532333 9.63798703,12.7652938 C9.61759435,12.758649 9.60200704,12.7543678 9.59226259,12.752934 Z M9.61401984,12.7825866 C9.51931826,12.8471236 9.42978124,12.917225 9.20040826,13.1033731 L9.1858088,13.1152197 C8.50632346,13.6664817 8.30617049,13.7997126 7.86961218,13.7918533 C7.79735425,13.790424 7.72605614,13.7813699 7.65631417,13.7652837 C7.31211157,13.6858922 7.06917967,13.4779399 6.80703403,13.1457587 C6.72865608,13.046441 6.65095713,12.9384462 6.55212341,12.7942255 C6.52257091,12.7511018 6.36169086,12.5133107 6.31579923,12.4467503 C5.97196151,11.9480541 5.75596993,11.75 5.66666667,11.75 C5.43499071,11.75 4.75,13.116061 4.75,14 L3.25,14 C3.25,12.3941445 4.32514894,10.25 5.66666667,10.25 C6.4461776,10.25 6.92742343,10.6912798 7.55072336,11.5953031 C7.7512964,11.8862107 7.88285663,12.0705872 7.95265586,12.1782482 C8.02392423,12.1248219 8.11244604,12.0544668 8.2407667,11.9503611 L8.25518466,11.9386618 C8.52064458,11.7232273 8.62633878,11.6404759 8.76930242,11.5430493 C9.04542403,11.3548785 9.27114383,11.25 9.55555556,11.25 C9.64093451,11.25 9.72575194,11.2564252 9.81061741,11.2689121 C10.0481824,11.3038667 10.2544572,11.3755824 10.5498922,11.5071104 C10.6101285,11.5339277 10.8291908,11.6340743 10.8739084,11.6541757 C11.0021996,11.7118449 11.110545,11.758088 11.222319,11.8020551 C11.9599351,12.0922013 12.7940475,12.25 14,12.25 L14,13.75 C12.6063229,13.75 11.5859372,13.5569618 10.6732365,13.1979449 C10.6382528,13.1841838 9.85812713,12.8370246 9.63798703,12.7652938 C9.63314062,12.7697454 9.62454854,12.7754115 9.61401984,12.7825866 Z" id="cash"></path>
                </g>
            </g>
        </g>
    </g>
</svg>