<?xml version="1.0" encoding="UTF-8"?>
<svg width="160px" height="17px" viewBox="0 0 160 17" version="1.1" xmlns="http://www.w3.org/2000/svg" xmlns:xlink="http://www.w3.org/1999/xlink">
    <!-- Generator: Sketch 48.2 (47327) - http://www.bohemiancoding.com/sketch -->
    <title>Page 1</title>
    <desc>Created with Sketch.</desc>
    <defs></defs>
    <g id="Footer" stroke="none" stroke-width="1" fill="none" fill-rule="evenodd" transform="translate(-30.000000, -32.000000)">
        <g fill="#FFFFFF" id="Page-1">
            <path d="M169,46 L187,46 L187,42 L169,42 L169,46 Z M169,39 L187,39 L187,35 L169,35 L169,39 Z M185.449199,49 C188.563171,49 190,47.688567 190,45.4296468 L190,43.4389509 C190,42.8067809 189.78493,42.515522 189.329547,42.1270061 L187.317683,40.3784288 L189.329547,38.6298516 C189.78493,38.2413357 190,37.9500768 190,37.3189305 L190,35.5703532 C190,33.3119448 188.563171,32 185.449199,32 L166,32 L166,49 L185.449199,49 Z M134,46 L152,46 L152,42 L134,42 L134,46 Z M134,39 L152,39 L152,35 L134,35 L134,39 Z M150.449294,49 C153.563201,49 155,47.688567 155,45.4296468 L155,43.4389509 C155,42.8067809 154.784934,42.515522 154.329561,42.1270061 L152.317739,40.3784288 L154.329561,38.6298516 C154.784934,38.2413357 155,37.9500768 155,37.3189305 L155,35.5703532 C155,33.3119448 153.563201,32 150.449294,32 L131,32 L131,49 L150.449294,49 Z M116.834454,32 L116.834454,45.9640481 L100.165546,45.9640481 L100.165546,32 L97,32 L97,45.1143296 C97,47.5181115 98.4387006,49 101.292848,49 L115.707152,49 C118.561299,49 120,47.5181115 120,45.1143296 L120,32 L116.834454,32 Z M65.1324067,38.9456806 L65.1324067,32 L62,32 L62,49 L65.1324067,49 L65.1324067,41.9330041 L81.867093,41.9330041 L81.867093,49 L85,49 L85,32 L81.867093,32 L81.867093,38.9456806 L65.1324067,38.9456806 Z M53,35.0359519 L53,32 L34.3158348,32 C31.4467422,32 30,33.4818885 30,35.8856704 L30,45.1143296 C30,47.5181115 31.4467422,49 34.3158348,49 L53,49 L53,45.9640481 L33.2547889,45.9640481 L33.2547889,35.0359519 L53,35.0359519 Z"></path>
        </g>
    </g>
</svg>