<?xml version="1.0" encoding="UTF-8"?>
<svg width="100px" height="10px" viewBox="0 0 100 10" version="1.1" xmlns="http://www.w3.org/2000/svg" xmlns:xlink="http://www.w3.org/1999/xlink">
    <!-- Generator: Sketch 48.2 (47327) - http://www.bohemiancoding.com/sketch -->
    <title>logo</title>
    <desc>Created with Sketch.</desc>
    <defs></defs>
    <g id="Artboard" stroke="none" stroke-width="1" fill="none" fill-rule="evenodd" transform="translate(-249.000000, -202.000000)">
        <path d="M262.763414,203.831081 L262.763414,202.05527 L251.582407,202.05527 C249.865651,202.05527 249,202.921892 249,204.328378 L249,209.726892 C249,211.133378 249.865651,212 251.582407,212 L262.763414,212 L262.763414,210.224189 L250.947715,210.224189 L250.947715,203.831081 L262.763414,203.831081 Z M270.222176,206.118378 L270.222176,202.05527 L268.317826,202.05527 L268.317826,212 L270.222176,212 L270.222176,207.865811 L280.393303,207.865811 L280.393303,212 L282.297653,212 L282.297653,202.05527 L280.393303,202.05527 L280.393303,206.118378 L270.222176,206.118378 Z M300.793193,202.05527 L300.793193,210.224189 L290.766433,210.224189 L290.766433,202.05527 L288.862083,202.05527 L288.862083,209.726892 C288.862083,211.133378 289.727597,212 291.44449,212 L300.115137,212 C301.83203,212 302.697544,211.133378 302.697544,209.726892 L302.697544,202.05527 L300.793193,202.05527 Z M320.976122,212 C322.851516,212 323.717168,211.232838 323.717168,209.911622 L323.717168,208.746622 C323.717168,208.377297 323.587347,208.206757 323.313298,207.979459 L322.101413,206.956622 L323.313298,205.933649 C323.587347,205.706351 323.717168,205.535946 323.717168,205.166486 L323.717168,204.143649 C323.717168,202.822432 322.851516,202.05527 320.976122,202.05527 L309.261287,202.05527 L309.261287,212 L320.976122,212 Z M311.165637,206.160946 L321.76959,206.160946 L321.76959,203.745811 L311.165637,203.745811 L311.165637,206.160946 Z M311.165637,210.309459 L321.76959,210.309459 L321.76959,207.823243 L311.165637,207.823243 L311.165637,210.309459 Z M341.462467,212 C343.337999,212 344.20365,211.232838 344.20365,209.911622 L344.20365,208.746622 C344.20365,208.377297 344.07383,208.206757 343.799643,207.979459 L342.587759,206.956622 L343.799643,205.933649 C344.07383,205.706351 344.20365,205.535946 344.20365,205.166486 L344.20365,204.143649 C344.20365,202.822432 343.337999,202.05527 341.462467,202.05527 L329.74777,202.05527 L329.74777,212 L341.462467,212 Z M331.65212,206.160946 L342.255935,206.160946 L342.255935,203.745811 L331.65212,203.745811 L331.65212,206.160946 Z M331.65212,210.309459 L342.255935,210.309459 L342.255935,207.823243 L331.65212,207.823243 L331.65212,210.309459 Z M347.707707,203.344009 C347.767943,203.340159 347.820916,203.329322 347.867054,203.311354 C347.913192,203.293386 347.950216,203.264581 347.978412,203.224795 C348.006607,203.18501 348.020705,203.130536 348.020705,203.061375 C348.020705,203.002481 348.009883,202.954995 347.987953,202.91906 C347.966308,202.883267 347.936973,202.854462 347.899664,202.832501 C347.86264,202.810826 347.820916,202.795996 347.77492,202.788295 C347.728925,202.780595 347.680081,202.776887 347.628959,202.776887 L347.256437,202.776887 L347.256437,203.349856 L347.525433,203.349856 C347.586808,203.349856 347.647613,203.34786 347.707707,203.344009 Z M347.052945,204.257365 L347.052945,202.60377 L347.686631,202.60377 C347.873462,202.60377 348.009883,202.642843 348.095608,202.720988 C348.181476,202.799276 348.224197,202.912786 348.224197,203.061375 C348.224197,203.133103 348.213374,203.195847 348.191587,203.24975 C348.169799,203.303653 348.139753,203.349143 348.101447,203.386362 C348.062998,203.423438 348.018712,203.452956 347.968871,203.474774 C347.919031,203.496592 347.865772,203.512563 347.809381,203.52283 L348.300951,204.257365 L348.062998,204.257365 L347.598342,203.52283 L347.256437,203.52283 L347.256437,204.257365 L347.052945,204.257365 Z M347.0894,202.300031 C346.942299,202.364059 346.814992,202.451188 346.707337,202.561418 C346.599823,202.671648 346.515949,202.801129 346.455998,202.949862 C346.39562,203.098594 346.365715,203.258877 346.365715,203.430568 C346.365715,203.602401 346.39562,203.762542 346.455998,203.911131 C346.515949,204.059864 346.599823,204.189487 346.707337,204.299575 C346.814992,204.409805 346.942299,204.497077 347.0894,204.561104 C347.236643,204.625275 347.397272,204.657217 347.571429,204.657217 C347.743022,204.657217 347.902227,204.625275 348.049613,204.561104 C348.196713,204.497077 348.32402,204.409805 348.431533,204.299575 C348.539189,204.189487 348.623633,204.059864 348.685008,203.911131 C348.746525,203.762542 348.777142,203.602401 348.777142,203.430568 C348.777142,203.258877 348.746525,203.098594 348.685008,202.949862 C348.623633,202.801129 348.539189,202.671648 348.431533,202.561418 C348.32402,202.451188 348.196713,202.364059 348.049613,202.300031 C347.902227,202.235861 347.743022,202.203919 347.571429,202.203919 C347.397272,202.203919 347.236643,202.235861 347.0894,202.300031 Z M348.135908,202.10966 C348.309923,202.182671 348.46101,202.283918 348.589029,202.413399 C348.717048,202.54288 348.817584,202.694892 348.890636,202.869007 C348.963545,203.043408 349,203.230499 349,203.430568 C349,203.63306 348.963545,203.820865 348.890636,203.99384 C348.817584,204.166957 348.717048,204.317543 348.589029,204.445741 C348.46101,204.573938 348.309923,204.674472 348.135908,204.747626 C347.961893,204.820637 347.773639,204.857143 347.571429,204.857143 C347.369219,204.857143 347.180964,204.820637 347.006949,204.747626 C346.832792,204.674472 346.681847,204.573938 346.553828,204.445741 C346.425809,204.317543 346.325416,204.166957 346.252221,203.99384 C346.179312,203.820865 346.142857,203.63306 346.142857,203.430568 C346.142857,203.230499 346.179312,203.043408 346.252221,202.869007 C346.325416,202.694892 346.425809,202.54288 346.553828,202.413399 C346.681847,202.283918 346.832792,202.182671 347.006949,202.10966 C347.180964,202.036648 347.369219,202 347.571429,202 C347.773639,202 347.961893,202.036648 348.135908,202.10966 Z" id="logo" fill="#4A4F55"></path>
    </g>
</svg>