<?xml version="1.0" encoding="UTF-8"?>
<svg width="202px" height="103px" viewBox="0 0 202 103" version="1.1" xmlns="http://www.w3.org/2000/svg" xmlns:xlink="http://www.w3.org/1999/xlink">
    <!-- Generator: Sketch 48.2 (47327) - http://www.bohemiancoding.com/sketch -->
    <title>Group 4</title>
    <desc>Created with Sketch.</desc>
    <defs></defs>
    <g id="No-Access" stroke="none" stroke-width="1" fill="none" fill-rule="evenodd" transform="translate(-87.000000, -99.000000)">
        <g id="Group-4" transform="translate(89.000000, 101.000000)">
            <path d="M105.869569,72.3862001 C105.869569,78.2145182 103.801825,83.1905076 99.6662741,87.3143175 C95.5307234,91.4381275 90.540567,93.5000016 84.6956553,93.5000016 L24.7028995,93.5000016 C17.9022161,93.5000016 12.084962,91.0898999 7.25096268,86.2696242 C2.41696339,81.4493486 0,75.6486096 0,68.8672332 C0,64.0286295 1.30497643,59.6024732 3.91496844,55.5886315 C6.52496046,51.5747898 9.96201106,48.5781995 14.2262234,46.5987707 C14.1527025,45.5724002 14.1159426,44.7843062 14.1159426,44.2344648 C14.1159426,36.463374 16.872935,29.8287215 22.3870026,24.3303083 C27.9010703,18.831895 34.5546121,16.0827296 42.3478277,16.0827296 C48.1559789,16.0827296 53.4218345,17.6955733 58.1455524,20.9213091 C62.8692704,24.1470449 66.315511,28.3624318 68.4843776,33.5675964 C71.0576091,31.2949189 74.1086808,30.1585972 77.6376841,30.1585972 C81.5342919,30.1585972 84.8610628,31.5331799 87.6180966,34.2823865 C90.3751304,37.0315932 91.7536266,40.3489194 91.7536266,44.2344648 C91.7536266,46.9836715 91.0000487,49.5129036 89.4928702,51.8222372 C94.2349684,52.9219199 98.1498977,55.3870049 101.237776,59.2175661 C104.325653,63.0481274 105.869569,67.4376281 105.869569,72.3862001 Z" id="-copy" stroke="#898D97" stroke-width="3"></path>
            <path d="M198.019802,64.4632768 C198.019802,68.0658725 196.741689,71.1416274 194.185426,73.6906338 C191.629162,76.2396402 188.54465,77.5141243 184.931798,77.5141243 L147.84912,77.5141243 C143.645486,77.5141243 140.049729,76.024394 137.061741,73.0448888 C134.073753,70.0653835 132.579782,66.479835 132.579782,62.2881356 C132.579782,59.2973014 133.386413,56.5614089 134.999699,54.0803761 C136.612985,51.5993432 138.737493,49.747093 141.373284,48.5235699 C141.32784,47.8891505 141.305118,47.4020144 141.305118,47.0621469 C141.305118,42.258686 143.009268,38.1576794 146.417619,34.7590042 C149.825971,31.3603291 153.938653,29.6610169 158.75579,29.6610169 C162.34592,29.6610169 165.600847,30.6579467 168.520668,32.6518362 C171.440489,34.6457256 173.570677,37.2513375 174.911295,40.46875 C176.501859,39.0639643 178.387785,38.3615819 180.56913,38.3615819 C182.977698,38.3615819 185.034039,39.211238 186.738215,40.9105756 C188.442391,42.6099132 189.294466,44.6604164 189.294466,47.0621469 C189.294466,48.7614845 188.828665,50.3248516 187.897049,51.7522952 C190.828231,52.4320302 193.248124,53.9557468 195.156801,56.3234905 C197.065478,58.6912342 198.019802,61.4044692 198.019802,64.4632768 Z" id="-copy-2" stroke="#898D97" stroke-width="3" transform="translate(165.299792, 53.587571) scale(-1, 1) translate(-165.299792, -53.587571) "></path>
            <path d="M174.21957,72.3143309 C174.21957,79.8000315 171.563827,86.191029 166.252261,91.4875153 C160.940696,96.7840015 154.531502,99.4322049 147.02449,99.4322049 L69.9717616,99.4322049 C61.2371869,99.4322049 53.7656965,96.3367494 47.5570664,90.1457455 C41.3484363,83.9547415 38.2441678,76.5044626 38.2441678,67.7946852 C38.2441678,61.5801413 39.9202367,55.8953313 43.2724248,50.7400847 C46.624613,45.5848381 51.039048,41.7361158 56.5158624,39.1938024 C56.4214346,37.8755658 56.3742214,36.8633636 56.3742214,36.1571654 C56.3742214,26.1762313 59.9152121,17.6549012 66.9972997,10.5929196 C74.0793873,3.53093788 82.6249782,0 92.6343287,0 C100.094128,0 106.85742,2.07148355 112.924408,6.21451281 C118.991397,10.3575421 123.417635,15.7716468 126.203256,22.4569895 C129.50823,19.538037 133.426927,18.0785827 137.959463,18.0785827 C142.964138,18.0785827 147.236933,19.8440517 150.777977,23.3750425 C154.319021,26.9060333 156.089516,31.1666984 156.089516,36.1571654 C156.089516,39.6881563 155.121646,42.9366191 153.185875,45.9026514 C159.27647,47.3150478 164.304677,50.4811221 168.270646,55.4009693 C172.236615,60.3208165 174.21957,65.9585474 174.21957,72.3143309 Z" id="" stroke="#565D6B" stroke-width="3" fill="#EAEFF2"></path>
            <path d="M79.2079208,66.3366337 C79.2079208,59.418768 90.6003426,50.4950495 105.090982,50.4950495 C119.581622,50.4950495 131.683168,59.418768 131.683168,66.3366337 L128.137543,66.3366337 C128.137543,61.0465011 116.056871,53.8107299 105.090982,53.8107299 C94.3771984,53.8107299 83.6146418,61.0692891 83.1254424,66.3366337 L79.2079208,66.3366337 Z" id="Combined-Shape" fill="#555C6A"></path>
        </g>
    </g>
</svg>