<?xml version="1.0" encoding="UTF-8"?>
<svg width="12px" height="8px" viewBox="0 0 12 8" version="1.1" xmlns="http://www.w3.org/2000/svg" xmlns:xlink="http://www.w3.org/1999/xlink">
    <!-- Generator: Sketch 48.2 (47327) - http://www.bohemiancoding.com/sketch -->
    <title>↳ Icon Font</title>
    <desc>Created with Sketch.</desc>
    <defs></defs>
    <g id="Icons/14/Primary" stroke="none" stroke-width="1" fill="none" fill-rule="evenodd" transform="translate(-1.000000, -3.000000)">
        <g id="btn/expand-all" transform="translate(1.000000, 3.000000)" fill="#00B14F">
            <path d="M11.25,0.8515625 C11.25,0.988281934 11.2044275,1.11588482 11.1132812,1.234375 L6.45117187,7.01757812 C6.3326817,7.17252682 6.17773533,7.25 5.98632812,7.25 C5.79492092,7.25 5.63997455,7.17252682 5.52148437,7.01757812 L0.88671875,1.24804687 C0.786457832,1.12044207 0.745442617,0.974610195 0.763671875,0.810546875 C0.781901133,0.646483555 0.85481707,0.514323418 0.982421875,0.4140625 C1.11002668,0.313801582 1.25585855,0.272786367 1.41992187,0.291015625 C1.5839852,0.309244883 1.71614533,0.38216082 1.81640625,0.509765625 L5.98632812,5.69140625 L10.1835937,0.482421875 C10.2838547,0.35481707 10.4160148,0.281901133 10.5800781,0.263671875 C10.7441414,0.245442617 10.8899733,0.286457832 11.0175781,0.38671875 C11.1725268,0.505208926 11.25,0.660155293 11.25,0.8515625 Z" id="↳-Icon-Font"></path>
        </g>
    </g>
</svg>