<?xml version="1.0" encoding="UTF-8"?>
<svg width="17px" height="21px" viewBox="0 0 17 21" version="1.1" xmlns="http://www.w3.org/2000/svg" xmlns:xlink="http://www.w3.org/1999/xlink">
    <!-- Generator: Sketch 48.2 (47327) - http://www.bohemiancoding.com/sketch -->
    <title>globe</title>
    <desc>Created with Sketch.</desc>
    <defs></defs>
    <g id="Select-Plan:-Deluxe-v4-collapse" stroke="none" stroke-width="1" fill="none" fill-rule="evenodd" transform="translate(-338.000000, -517.000000)">
        <g id="Highlights" transform="translate(15.000000, 261.000000)" fill="#898D97">
            <g id="worldwide" transform="translate(0.000000, 256.000000)">
                <g id="worldwide-icon" transform="translate(323.000000, 0.000000)">
                    <path d="M1.22902613,7.70006549 C1.22902613,6.92450717 1.38227782,6.17056127 1.68458969,5.45918528 C1.69231777,5.44110944 1.70096273,5.4238195 1.7088218,5.40587465 L4.43801166,5.60811448 L4.70102823,6.42977929 L5.57626564,7.77629838 L3.43729124,9.03662977 L2.60423079,11.4269631 C2.22385225,10.9800445 1.91459821,10.482435 1.68458969,9.94081472 C1.38227782,9.22943873 1.22902613,8.47549283 1.22902613,7.70006549 Z M11.0757744,3.62422556 C11.606654,4.15510511 12.0238392,4.77243434 12.3154103,5.45918528 C12.6177222,6.17056127 12.7709739,6.92450717 12.7709739,7.70006549 C12.7709739,8.47549283 12.6177222,9.22943873 12.3154103,9.94081472 C12.0568472,10.549761 11.698998,11.1038247 11.2511625,11.5918724 L9.45300937,10.2668348 L10.5490864,7.81166416 L10.5490864,5.34077543 L8.05448949,4.05175846 L9.25142445,2.38930513 C9.93359094,2.68061432 10.5472526,3.0958347 11.0757744,3.62422556 Z M2.50468269,13.0537887 L3.69677124,11.4763442 L4.30047809,9.74446919 L7.05167333,8.12314493 L5.65629707,5.97657345 L5.22064313,4.61538411 L2.27598402,4.39716419 C2.46840003,4.12314493 2.68413125,3.86445085 2.92422556,3.62422556 C3.45549807,3.09321501 4.07269631,2.67602986 4.75918528,2.38445871 C5.47016831,2.08227782 6.2242452,1.92915712 7.00006549,1.92915712 C7.40703386,1.92915712 7.80797695,1.97251293 8.19988211,2.05621193 L6.49446591,4.42519484 L9.50121161,5.97880018 L9.50121161,7.58833584 L8.1523348,10.6100138 L10.460279,12.3107145 C10.0844849,12.5941646 9.67686162,12.8303294 9.24094571,13.0154103 C8.5297007,13.3175912 7.7757548,13.4708429 7.00006549,13.4708429 C6.2242452,13.4708429 5.4702993,13.3175912 4.75918528,13.0154103 C4.53087956,12.9184819 4.31121881,12.8064903 4.09902417,12.6823171 L3.35372323,13.6682363 C3.65000982,13.8501736 3.95952584,14.0106294 4.28214028,14.14777 C5.14493418,14.5142642 6.05920493,14.7 7.00006549,14.7 C7.94079507,14.7 8.85506582,14.5142642 9.71785972,14.14777 C10.5506582,13.7939813 11.2994957,13.2878578 11.9436767,12.6436767 C12.5878578,11.9996267 13.0939813,11.2506582 13.44777,10.4178597 C13.8142642,9.55506582 14,8.64066409 14,7.70006549 C14,6.75933591 13.8142642,5.84493418 13.44777,4.98214028 C13.0938503,4.14921082 12.5877268,3.40024232 11.9436767,2.75632327 C11.2994957,2.11214225 10.5506582,1.60614972 9.71785972,1.25223001 C8.85506582,0.885866789 7.94079507,0.7 7.00006549,0.7 C6.05933591,0.7 5.14493418,0.885866789 4.28214028,1.25223001 C3.44947279,1.60614972 2.70050429,2.11214225 2.05632327,2.75632327 C1.41227323,3.40024232 0.906280699,4.14921082 0.552230009,4.98214028 C0.185866789,5.84493418 0,6.75933591 0,7.70006549 C0,8.64066409 0.185866789,9.55506582 0.552230009,10.4178597 C0.906149715,11.2506582 1.41214225,11.9996267 2.05632327,12.6436767 C2.20027507,12.7877595 2.35038313,12.9237213 2.50468269,13.0537887 Z M7.79088273,16.8165231 C12.4501546,16.4961167 16.1,12.4509852 16.1,7.60745537 C16.1,4.68060527 14.7513068,1.94890468 12.5127045,0.213238856 C12.0109094,-0.175620443 11.2911412,-0.0154172179 10.9917136,0.55367071 C13.4741718,1.98869372 15.0135598,4.68531713 15.0135598,7.60745537 C15.0135598,12.0672305 11.4962999,15.695755 7.17299601,15.695755 C5.12217037,15.695755 3.18045819,14.8850534 1.69854507,13.4115502 C1.25815805,13.865852 1.31233416,14.6179171 1.81247983,15.0004939 C3.18705575,16.0521548 4.83314656,16.6878632 6.55536305,16.8165231 L6.61423357,16.8209732 L6.61423357,19.8472959 L2.92074276,19.8472959 L2.92074276,21 L11.4107854,21 L11.4107854,19.8472959 L7.73163158,19.8472959 L7.73163158,16.8205806 L7.79088273,16.8165231" id="globe"></path>
                </g>
            </g>
        </g>
    </g>
</svg>