<?xml version="1.0" encoding="UTF-8"?>
<svg width="77px" height="30px" viewBox="0 0 77 30" version="1.1" xmlns="http://www.w3.org/2000/svg" xmlns:xlink="http://www.w3.org/1999/xlink">
    <!-- Generator: Sketch 48.2 (47327) - http://www.bohemiancoding.com/sketch -->
    <title>Shape</title>
    <desc>Created with Sketch.</desc>
    <defs></defs>
    <g id="Header-w/Help-Copy" stroke="none" stroke-width="1" fill="none" fill-rule="evenodd" transform="translate(-20.000000, -9.000000)">
        <g id="Header" fill="#00B45E" fill-rule="nonzero">
            <g id="grab-logo" transform="translate(20.000000, 9.000000)">
                <path d="M61.2319312,9.33422562 L61.2319312,0 L63.1458891,0 L63.1458891,8.02390057 C62.61587,8.28891013 61.8944551,8.78948375 61.2319312,9.33422562 Z M57.9045889,12.1462715 C58.493499,11.4395793 59.0971319,10.7328872 59.8185468,10.1292543 L59.8185468,0 L57.9045889,0 L57.9045889,12.1462715 Z M35.7321224,19.5665392 C35.7321224,22.0546845 36.7185468,24.4250478 38.5294455,26.2359465 C40.3256214,28.0321224 42.6959847,29.0332696 45.1988528,29.0332696 C46.258891,29.0332696 47.3483748,28.8124283 48.1139579,28.4296367 L48.1139579,26.5156788 C47.21587,26.8984704 46.1263862,27.1193117 45.1988528,27.1193117 C41.1059273,27.1193117 37.6608031,23.6741874 37.6608031,19.581262 L37.6608031,17.8586998 C37.6608031,13.7657744 41.1206501,10.3206501 45.1988528,10.3206501 C47.2305927,10.3206501 49.1298279,11.100956 50.5432122,12.5143403 C51.9565966,13.9277247 52.7369025,15.8269598 52.7369025,17.8586998 L52.7369025,29.0479924 L54.6508604,29.0479924 L54.6508604,17.490631 C54.5330784,15.0466539 53.4877629,12.7646272 51.7210325,11.0567878 C49.9395793,9.34894837 47.6281071,8.40669216 45.1988528,8.40669216 C42.7107075,8.40669216 40.3403442,9.39311663 38.5294455,11.2040153 C36.7332696,13.0001912 35.7321224,15.3705545 35.7321224,17.8734226 L35.7321224,19.5665392 Z M64.3826004,14.9730402 C65.2512428,14.1043977 66.3701721,13.6185468 67.4743786,13.6185468 C69.8447419,13.6185468 71.685086,15.4736138 71.685086,17.8292543 L71.685086,19.5518164 C71.685086,21.9221797 69.8300191,23.7625239 67.4743786,23.7625239 C66.3260038,23.7625239 65.2217973,23.1294455 64.3531549,21.9957935 C63.5875717,20.9946463 63.0869981,19.6254302 63.0133843,18.4034417 L61.4674952,20.3173996 C61.776673,21.7602294 62.5275335,23.158891 63.6022945,24.1305927 C64.706501,25.13174 66.0904398,25.6912046 67.4743786,25.6912046 C70.8606119,25.6912046 73.6137667,22.9380497 73.6137667,19.5665392 L73.6137667,17.8439771 C73.6137667,16.2391969 72.9659656,14.7080306 71.7881453,13.5449331 C70.610325,12.3671128 69.0791587,11.7193117 67.4743786,11.7193117 C66.4585086,11.7193117 64.8537285,12.0873805 62.9397706,13.8099426 C62.4244742,14.325239 61.2172084,15.5325048 60.4810707,16.3864245 C59.2443595,17.7409178 57.4629063,19.757935 55.93174,21.8043977 L55.93174,24.7931166 C57.6248566,22.6141491 58.5965583,21.3921606 60.2013384,19.5518164 C61.6147228,17.8734226 63.3814532,15.8564054 64.3826004,14.9730402 Z M19.1543021,11.3659656 L19.1543021,9.09866157 C17.4170172,8.17112811 15.5325048,7.75889101 13.0296367,7.75889101 C10.4678776,7.75889101 8.03862333,8.70114723 6.19827916,10.3942639 C4.34321224,12.1021033 3.32734226,14.3399618 3.32734226,16.7250478 L3.32734226,17.3434034 C3.32734226,22.2902486 7.28776291,26.3095602 12.175717,26.3095602 C16.1361377,26.3095602 17.7703633,25.0139579 18.1826004,24.6017208 L18.1826004,18.8451243 L11.7045889,18.8451243 L11.7045889,20.7590822 L16.3864245,20.7590822 L16.3864245,23.6447419 L16.3717017,23.6447419 C15.7680688,23.8803059 14.5166348,24.3808795 12.175717,24.3808795 C10.3206501,24.3808795 8.56864245,23.6594646 7.27304015,22.3344168 C5.96271511,21.009369 5.25602294,19.2426386 5.25602294,17.3286807 L5.25602294,16.710325 C5.25602294,12.8971319 8.81892925,9.6581262 13.0443595,9.6581262 C15.9447419,9.67284895 17.6820268,10.1586998 19.1543021,11.3659656 Z M33.1114723,13.6185468 C33.8328872,13.6185468 34.4512428,13.7363289 34.9518164,13.9718929 C35.1873805,13.3829828 35.4376673,12.8824092 35.7910134,12.293499 C35.275717,11.9254302 34.024283,11.6898662 33.1114723,11.6898662 C29.6221797,11.6898662 26.9868069,14.325239 26.9868069,17.8292543 L26.9868069,29.0185468 L28.9007648,29.0185468 L28.9007648,17.8292543 C28.9007648,15.3558317 30.623327,13.6185468 33.1114723,13.6185468 Z M0,16.7250478 L0,17.3434034 C0,20.6707457 1.26615679,23.7625239 3.54818356,26.0739962 C5.83021033,28.3707457 8.89254302,29.6369025 12.1609943,29.6369025 C14.7963671,29.6369025 17.1225621,29.0479924 19.0954111,27.8701721 C20.714914,26.8984704 21.4363289,25.9267686 21.4952199,25.8384321 L21.4952199,15.5325048 L11.7045889,15.5325048 L11.7045889,17.4464627 L19.581262,17.4464627 L19.581262,25.2642447 C18.6537285,26.1917782 16.4600382,27.7376673 12.175717,27.7376673 C9.37839388,27.7376673 6.78718929,26.6629063 4.87323136,24.7195029 C2.97399618,22.7908222 1.92868069,20.1701721 1.92868069,17.3581262 L1.92868069,16.7397706 C1.92868069,14.0749522 3.12122371,11.4248566 5.21185468,9.4667304 C7.34665392,7.46443595 10.1292543,6.36022945 13.0443595,6.36022945 C15.7680688,6.36022945 17.6525813,6.77246654 19.1690249,7.7 L19.1690249,5.53575526 C17.5789675,4.8585086 15.6797323,4.56405354 13.0296367,4.56405354 C5.96271511,4.56405354 0,10.1292543 0,16.7250478 Z M51.3087954,29.0185468 L51.3087954,17.8292543 C51.3087954,14.38413 48.6145315,11.6898662 45.1694073,11.6898662 C43.5646272,11.6898662 42.0334608,12.3376673 40.8556405,13.5154876 C39.6778203,14.6933078 39.0300191,16.2244742 39.0300191,17.8145315 L39.0300191,19.5370937 C39.0300191,22.8644359 41.842065,25.6617591 45.1546845,25.6617591 C46.0674952,25.6617591 47.3042065,25.4409178 48.0697897,24.8078394 L48.0697897,22.8202677 C47.3189293,23.4239006 46.2441683,23.7772467 45.1546845,23.7772467 C42.799044,23.7772467 40.9439771,21.9221797 40.9439771,19.5665392 L40.9439771,17.8439771 C40.9439771,15.4736138 42.799044,13.6332696 45.1546845,13.6332696 C47.5250478,13.6332696 49.365392,15.4883365 49.365392,17.8439771 L49.365392,29.0332696 L51.3087954,29.0332696 L51.3087954,29.0185468 Z M33.1114723,10.2912046 C34.4070746,10.2912046 35.5407266,10.5709369 36.5565966,11.1451243 C37.0277247,10.5414914 37.5135755,10.0703633 37.8816444,9.70229446 C36.8068834,8.87782027 34.981262,8.37724665 33.126195,8.37724665 C30.4613767,8.37724665 28.0468451,9.33422562 26.324283,11.0862333 C24.6164436,12.8087954 23.6741874,15.2086042 23.6741874,17.8439771 L23.6741874,29.0332696 L25.5881453,29.0332696 L25.5881453,17.8439771 C25.5734226,13.3977055 28.6652008,10.2912046 33.1114723,10.2912046 Z M74.1437859,11.1745698 C72.3476099,9.37839388 69.9772467,8.37724665 67.4743786,8.37724665 C65.6487572,8.37724665 63.8231358,9.05449331 62.8072658,9.73173996 C60.7166348,11.1156788 59.0087954,12.6321224 55.9170172,16.6219885 L55.9170172,19.4929254 C58.5376673,16.0772467 61.0110899,13.3977055 62.8956023,11.9107075 C64.1323136,10.924283 65.8843212,10.3059273 67.4743786,10.3059273 C71.567304,10.3059273 75.0124283,13.7657744 75.0124283,17.8439771 L75.0124283,19.5665392 C75.0124283,21.5835564 74.2173996,23.4827916 72.7745698,24.9108987 C71.3464627,26.324283 69.4619503,27.1045889 67.4743786,27.1045889 C64.1175908,27.1045889 61.1583174,24.7931166 60.3632887,21.6571702 L59.0087954,23.2913958 C59.9952199,26.5892925 63.5581262,29.0185468 67.4743786,29.0185468 C69.9772467,29.0185468 72.3328872,28.0173996 74.1437859,26.2212237 C75.9399618,24.410325 76.941109,22.0546845 76.941109,19.5518164 L76.941109,17.8292543 C76.941109,15.341109 75.9399618,12.9707457 74.1437859,11.1745698 Z" id="Shape"></path>
            </g>
        </g>
    </g>
</svg>