<?xml version="1.0" encoding="UTF-8"?>
<svg width="21px" height="21px" viewBox="0 0 21 21" version="1.1" xmlns="http://www.w3.org/2000/svg" xmlns:xlink="http://www.w3.org/1999/xlink">
    <!-- Generator: Sketch 48.2 (47327) - http://www.bohemiancoding.com/sketch -->
    <title>hospital</title>
    <desc>Created with Sketch.</desc>
    <defs></defs>
    <g id="Select-Plan:-Deluxe-v4-collapse" stroke="none" stroke-width="1" fill="none" fill-rule="evenodd" transform="translate(-334.000000, -432.000000)">
        <g id="Highlights" transform="translate(15.000000, 261.000000)" fill="#898D97">
            <g id="income" transform="translate(0.000000, 171.000000)">
                <g id="hospital-icon" transform="translate(319.000000, 0.000000)">
                    <path d="M6.234375,19.6875 L9.84375,19.6875 L9.84375,15.09375 L6.234375,15.09375 L6.234375,19.6875 Z M11.15625,19.6875 L14.765625,19.6875 L14.765625,15.09375 L11.15625,15.09375 L11.15625,19.6875 Z M20.34375,5.90625 L16.734375,5.90625 L16.734375,0.65625 C16.734375,0.294 16.440375,0 16.078125,0 L4.921875,0 C4.559625,0 4.265625,0.294 4.265625,0.65625 L4.265625,5.90625 L0.65625,5.90625 C0.294,5.90625 0,6.20025 0,6.5625 L0,18.375 L1.3125,18.375 L1.3125,7.21875 L5.578125,7.21875 L5.578125,1.3125 L15.421875,1.3125 L15.421875,7.21875 L19.6875,7.21875 L19.6875,19.6875 L16.078125,19.6875 L16.078125,13.78125 L4.921875,13.78125 L4.921875,19.6875 L0,19.6875 L0,21 L21,21 L21,6.5625 C21,6.20025 20.706,5.90625 20.34375,5.90625 Z M2.625,9.84375 L18.375,9.84375 L18.375,8.53125 L2.625,8.53125 L2.625,9.84375 Z M9.84375,2.625 L9.84375,4.265625 L8.203125,4.265625 L8.203125,5.578125 L9.84375,5.578125 L9.84375,7.21875 L11.15625,7.21875 L11.15625,5.578125 L12.796875,5.578125 L12.796875,4.265625 L11.15625,4.265625 L11.15625,2.625 L9.84375,2.625 M2.625,12.46875 L18.375,12.46875 L18.375,11.15625 L2.625,11.15625 L2.625,12.46875 Z" id="hospital"></path>
                </g>
            </g>
        </g>
    </g>
</svg>