<?xml version="1.0" encoding="UTF-8"?>
<svg width="35px" height="27px" viewBox="0 0 35 27" version="1.1" xmlns="http://www.w3.org/2000/svg" xmlns:xlink="http://www.w3.org/1999/xlink">
    <!-- Generator: Sketch 48.2 (47327) - http://www.bohemiancoding.com/sketch -->
    <title>Page 1 Copy</title>
    <desc>Created with Sketch.</desc>
    <defs>
        <polygon id="path-1" points="0.0645869368 0.0335471698 32.7665224 0.0335471698 32.7665224 4.16545718 0.0645869368 4.16545718"></polygon>
        <polygon id="path-3" points="0 26.9115965 34.8605662 26.9115965 34.8605662 0 0 0"></polygon>
    </defs>
    <g id="Page-1" stroke="none" stroke-width="1" fill="none" fill-rule="evenodd">
        <g id="Page-1-Copy">
            <g id="Group-3" transform="translate(1.740336, 22.746139)">
                <mask id="mask-2" fill="white">
                    <use xlink:href="#path-1"></use>
                </mask>
                <g id="Clip-2"></g>
                <path d="M32.4287949,3.80054282 L32.4287949,3.87552722 L32.4934944,3.87552722 C32.5081337,3.87552722 32.520009,3.87258024 32.5290178,3.86657712 C32.5380266,3.86002826 32.5422238,3.85031413 32.5422238,3.83776215 C32.5422238,3.82510103 32.5380266,3.81626007 32.5290178,3.80949292 C32.520009,3.8034898 32.5081337,3.80054282 32.4934944,3.80054282 L32.4287949,3.80054282 Z M32.4943134,3.75157329 C32.5284035,3.75157329 32.5542014,3.75909144 32.5729356,3.77361974 C32.5910556,3.78885922 32.6000644,3.80958491 32.6000644,3.83518723 C32.6000644,3.85662409 32.5930007,3.87460668 32.5784638,3.88903338 C32.5638245,3.90285051 32.5429404,3.91118142 32.515914,3.9146357 L32.6021119,4.01348911 L32.5346483,4.01348911 L32.4545928,3.91534688 L32.4287949,3.91534688 L32.4287949,4.01348911 L32.3722852,4.01348911 L32.3722852,3.75157329 L32.4943134,3.75157329 Z M32.4775243,4.10319884 C32.5081337,4.10319884 32.5366957,4.09771263 32.5631079,4.08602903 C32.5896224,4.07485341 32.6126563,4.05900435 32.6328237,4.03898984 C32.6529911,4.01887373 32.668347,3.99621771 32.6801199,3.96919303 C32.6912785,3.94226996 32.6968066,3.91392453 32.6968066,3.88344557 C32.6968066,3.85316981 32.6912785,3.82472279 32.6801199,3.79779971 C32.668347,3.77087663 32.6529911,3.74801742 32.6328237,3.7280029 C32.6126563,3.70798839 32.5896224,3.69274891 32.5631079,3.68096372 C32.5366957,3.66999129 32.5081337,3.66440348 32.4775243,3.66440348 C32.4461982,3.66440348 32.4169196,3.66999129 32.3897909,3.68096372 C32.3626621,3.69274891 32.3396283,3.70798839 32.3194608,3.7280029 C32.299191,3.74801742 32.2839375,3.77087663 32.2720623,3.79779971 C32.2609037,3.82472279 32.2553755,3.85316981 32.2553755,3.88344557 C32.2553755,3.91392453 32.2609037,3.94226996 32.2720623,3.96919303 C32.2839375,3.99621771 32.299191,4.01887373 32.3194608,4.03898984 C32.3396283,4.05900435 32.3626621,4.07485341 32.3897909,4.08602903 C32.4169196,4.09771263 32.4461982,4.10319884 32.4775243,4.10319884 Z M32.4775243,3.60151524 C32.5171425,3.60151524 32.5547133,3.6084238 32.590339,3.62366328 C32.6251457,3.63808999 32.6558575,3.6582061 32.6822697,3.68380842 C32.7080676,3.70941074 32.7289516,3.7396865 32.7442052,3.77361974 C32.7589468,3.80816255 32.7665224,3.8448389 32.7665224,3.88344557 C32.7665224,3.92215385 32.7589468,3.95883019 32.7442052,3.99276343 C32.7289516,4.02720464 32.7080676,4.05687083 32.6822697,4.08247315 C32.6558575,4.10807547 32.6251457,4.12819158 32.590339,4.14332946 C32.5547133,4.15846734 32.5171425,4.1654775 32.4775243,4.1654775 C32.4363705,4.1654775 32.3980831,4.15846734 32.3626621,4.14332946 C32.3271388,4.12819158 32.2965294,4.10807547 32.2706291,4.08247315 C32.2442169,4.05687083 32.2240495,4.02720464 32.2087959,3.99276343 C32.1940543,3.95883019 32.1864787,3.92215385 32.1864787,3.88344557 C32.1864787,3.8448389 32.1940543,3.80816255 32.2087959,3.77361974 C32.2240495,3.7396865 32.2442169,3.70941074 32.2706291,3.68380842 C32.2965294,3.6582061 32.3271388,3.63808999 32.3626621,3.62366328 C32.3980831,3.6084238 32.4363705,3.60151524 32.4775243,3.60151524 Z M5.79213479,2.59327141 C5.79213479,2.09433091 6.12075116,1.68449057 6.65974343,1.68449057 C7.17437099,1.68449057 7.52110733,2.07634833 7.52110733,2.59327141 C7.52110733,3.11019448 7.17437099,3.50205225 6.65974343,3.50205225 C6.12075116,3.50205225 5.79213479,3.0922119 5.79213479,2.59327141 Z M8.10739579,2.59327141 L8.10739579,1.17386647 L7.485584,1.17386647 L7.485584,1.51868505 C7.28779995,1.26296662 6.9883598,1.10264731 6.58173543,1.10264731 C5.77954295,1.10264731 5.15138406,1.72665312 5.15138406,2.59327141 C5.15138406,3.46049927 5.77954295,4.0838955 6.58173543,4.0838955 C6.9883598,4.0838955 7.28779995,3.9235762 7.485584,3.66856894 L7.485584,4.01277794 L8.10739579,4.01277794 L8.10739579,2.59327141 Z M29.123897,2.59327141 C29.123897,2.09433091 29.4533323,1.68449057 29.9915056,1.68449057 C30.5061332,1.68449057 30.8535861,2.07634833 30.8535861,2.59327141 C30.8535861,3.11019448 30.5061332,3.50205225 29.9915056,3.50205225 C29.4533323,3.50205225 29.123897,3.0922119 29.123897,2.59327141 Z M31.439977,2.59327141 L31.439977,0.0335471698 L30.8174486,0.0335471698 L30.8174486,1.51868505 C30.6203811,1.26296662 30.320941,1.10264731 29.9143166,1.10264731 C29.1121241,1.10264731 28.4839652,1.72665312 28.4839652,2.59327141 C28.4839652,3.46049927 29.1121241,4.0838955 29.9143166,4.0838955 C30.320941,4.0838955 30.6203811,3.9235762 30.8174486,3.66856894 L30.8174486,4.01277794 L31.439977,4.01277794 L31.439977,2.59327141 Z M15.8271164,1.65482438 C16.2282126,1.65482438 16.4851681,1.90424383 16.5513009,2.34375036 L15.0674086,2.34375036 C15.1329271,1.93401161 15.3842521,1.65482438 15.8271164,1.65482438 Z M15.8389916,1.10264731 C15.0012758,1.10264731 14.4149874,1.70867054 14.4149874,2.59327141 C14.4149874,3.49585486 15.0256405,4.0838955 15.8814763,4.0838955 C16.3117488,4.0838955 16.7067026,3.97671118 17.0540532,3.68584035 L16.7490849,3.22906241 C16.5095328,3.41914949 16.2045645,3.52552104 15.9169996,3.52552104 C15.5159034,3.52552104 15.1510471,3.34163135 15.0611638,2.83100726 L17.1858069,2.83100726 C17.1919492,2.75359071 17.1975797,2.67627576 17.1975797,2.59327141 C17.1919492,1.70867054 16.6410817,1.10264731 15.8389916,1.10264731 Z M23.3491553,2.59327141 C23.3491553,2.09433091 23.6783859,1.68449057 24.2173782,1.68449057 C24.7320058,1.68449057 25.0787421,2.07634833 25.0787421,2.59327141 C25.0787421,3.11019448 24.7320058,3.50205225 24.2173782,3.50205225 C23.6783859,3.50205225 23.3491553,3.0922119 23.3491553,2.59327141 Z M25.6652353,2.59327141 L25.6652353,1.17386647 L25.0426045,1.17386647 L25.0426045,1.51868505 C24.8455371,1.26296662 24.5460969,1.10264731 24.1393702,1.10264731 C23.3371777,1.10264731 22.7092236,1.72665312 22.7092236,2.59327141 C22.7092236,3.46049927 23.3371777,4.0838955 24.1393702,4.0838955 C24.5460969,4.0838955 24.8455371,3.9235762 25.0426045,3.66856894 L25.0426045,4.01277794 L25.6652353,4.01277794 L25.6652353,2.59327141 Z M19.836748,2.59327141 C19.836748,3.45440348 20.441054,4.0838955 21.3624083,4.0838955 C21.7933974,4.0838955 22.0810647,3.98920755 22.3916634,3.74527431 L22.0928375,3.24633382 C21.8596325,3.4129521 21.6137333,3.50205225 21.3449026,3.50205225 C20.8477808,3.49585486 20.4829244,3.13986067 20.4829244,2.59327141 C20.4829244,2.04729173 20.8477808,1.69068795 21.3449026,1.68449057 C21.6137333,1.68449057 21.8596325,1.77369231 22.0928375,1.940209 L22.3916634,1.44126851 C22.0810647,1.19804644 21.7933974,1.10264731 21.3624083,1.10264731 C20.441054,1.10264731 19.836748,1.73224093 19.836748,2.59327141 Z M27.8550897,1.10264731 C27.4964782,1.10264731 27.2632732,1.26916401 27.101729,1.51868505 L27.101729,1.17386647 L26.4854454,1.17386647 L26.4854454,4.01277794 L27.1073595,4.01277794 L27.1073595,2.42126851 C27.1073595,1.95199419 27.311286,1.69068795 27.7179103,1.69068795 C27.8433169,1.69068795 27.9748658,1.70867054 28.1072337,1.76200871 L28.2980564,1.18006386 C28.160877,1.12682729 27.9812129,1.10264731 27.8550897,1.10264731 Z M11.1831836,1.39981713 C10.88446,1.20353266 10.4714886,1.10264731 10.016749,1.10264731 C9.29266692,1.10264731 8.82605215,1.44746589 8.82605215,2.01142816 C8.82605215,2.47440348 9.17289086,2.7598897 9.81282261,2.84898984 L10.1066323,2.89044122 C10.4471239,2.93819158 10.608668,3.02658055 10.608668,3.18689985 C10.608668,3.40665312 10.3817077,3.53171843 9.956861,3.53171843 C9.52587193,3.53171843 9.21465892,3.39496952 9.00499963,3.23465022 L8.71190658,3.71560813 C9.0531148,3.96502758 9.48410387,4.0838955 9.95061626,4.0838955 C10.7765592,4.0838955 11.2556634,3.69823512 11.2556634,3.15794485 C11.2556634,2.65900435 10.8782153,2.39769811 10.2556869,2.30849637 L9.9624915,2.26633382 C9.69366078,2.23118142 9.47785913,2.17794485 9.47785913,1.98785776 C9.47785913,1.7798897 9.68117131,1.65482438 10.0223795,1.65482438 C10.3879524,1.65482438 10.7403193,1.79167489 10.9143529,1.89875762 L11.1831836,1.39981713 Z M19.2085891,1.10264731 C18.8493633,1.10264731 18.6159535,1.26916401 18.4544094,1.51868505 L18.4544094,1.17386647 L17.8382281,1.17386647 L17.8382281,4.01277794 L18.4600399,4.01277794 L18.4600399,2.42126851 C18.4600399,1.95199419 18.6640687,1.69068795 19.0707954,1.69068795 C19.1959972,1.69068795 19.3283651,1.70867054 19.459914,1.76200871 L19.6514534,1.18006386 C19.5135573,1.12682729 19.3338933,1.10264731 19.2085891,1.10264731 Z M13.9003598,1.17386647 L12.8829799,1.17386647 L12.8829799,0.312734398 L12.2549234,0.312734398 L12.2549234,1.17386647 L11.6740607,1.17386647 L11.6740607,1.73843832 L12.2549234,1.73843832 L12.2549234,3.03277794 C12.2549234,3.69213933 12.5117765,4.0838955 13.2478362,4.0838955 C13.5173835,4.0838955 13.8285965,4.00099274 14.025664,3.86414224 L13.8467165,3.33553556 C13.6608077,3.44261829 13.4574955,3.49585486 13.2959514,3.49585486 C12.984636,3.49585486 12.8829799,3.30576778 12.8829799,3.02099274 L12.8829799,1.73843832 L13.9003598,1.73843832 L13.9003598,1.17386647 Z M4.60061893,4.01277794 L4.60061893,2.23118142 C4.60061893,1.56013643 4.17024409,1.1088447 3.47605481,1.10264731 C3.11109613,1.0971611 2.73375036,1.20973004 2.47044777,1.6077852 C2.27338033,1.2926328 1.96216732,1.10264731 1.52493351,1.10264731 C1.21986286,1.10264731 0.920422714,1.19174746 0.687115329,1.52427286 L0.687115329,1.17386647 L0.0645869368,1.17386647 L0.0645869368,4.01277794 L0.693360064,4.01277794 L0.693360064,2.43925109 C0.693360064,1.94569521 0.968435511,1.68449057 1.39317985,1.68449057 C1.80615132,1.68449057 2.01570824,1.95199419 2.01570824,2.4329521 L2.01570824,4.01277794 L2.64386713,4.01277794 L2.64386713,2.43925109 C2.64386713,1.94569521 2.93143204,1.68449057 3.34440352,1.68449057 C3.76914785,1.68449057 3.97246004,1.95199419 3.97246004,2.4329521 L3.97246004,4.01277794 L4.60061893,4.01277794 Z" id="Fill-1" fill="#010101" mask="url(#mask-2)"></path>
            </g>
            <mask id="mask-4" fill="white">
                <use xlink:href="#path-3"></use>
            </mask>
            <g id="Clip-5"></g>
            <polygon id="Fill-4" fill="#F16522" mask="url(#mask-4)" points="12.7167369 19.0969956 22.1431128 19.0969956 22.1431128 2.28602322 12.7167369 2.28602322"></polygon>
            <path d="M13.3155865,10.6915196 C13.3155865,7.28112772 14.9247829,4.24389985 17.4302524,2.28603338 C15.597474,0.854132075 13.2855913,1.01596517e-05 10.7724438,1.01596517e-05 C4.82295196,1.01596517e-05 -3.07118102e-05,4.78703483 -3.07118102e-05,10.6915196 C-3.07118102e-05,16.5960044 4.82295196,21.383029 10.7724438,21.383029 C13.2855913,21.383029 15.597474,20.5289071 17.4302524,19.0970058 C14.9247829,17.1391393 13.3155865,14.1020131 13.3155865,10.6915196" id="Fill-6" fill="#E41B24" mask="url(#mask-4)"></path>
            <path d="M34.524231,17.3160798 L34.524231,16.9014644 L34.4148969,16.9014644 L34.2895927,17.1869507 L34.1641862,16.9014644 L34.0549545,16.9014644 L34.0549545,17.3160798 L34.1315293,17.3160798 L34.1315293,17.003061 L34.2491555,17.2733077 L34.3293134,17.2733077 L34.4469396,17.0023498 L34.4469396,17.3160798 L34.524231,17.3160798 Z M33.8327034,17.3160798 L33.8327034,16.9719724 L33.9726469,16.9719724 L33.9726469,16.9021756 L33.6161851,16.9021756 L33.6161851,16.9719724 L33.7561286,16.9719724 L33.7561286,17.3160798 L33.8327034,17.3160798 Z M34.8605253,10.6908694 C34.8605253,16.5959637 30.037645,21.3822772 24.0880508,21.3822772 C21.5750057,21.3822772 19.263123,20.5281553 17.4309588,19.096254 C19.9364283,17.1392003 21.5450105,14.1012612 21.5450105,10.6908694 C21.5450105,7.2804775 19.9364283,4.24314804 17.4309588,2.28538316 C19.263123,0.854193033 21.5750057,7.11175617e-05 24.0880508,7.11175617e-05 C30.037645,7.11175617e-05 34.8605253,4.78638462 34.8605253,10.6908694 Z" id="Fill-7" fill="#F89E1C" mask="url(#mask-4)"></path>
        </g>
    </g>
</svg>