<?xml version="1.0" encoding="UTF-8"?>
<svg width="34px" height="26px" viewBox="0 0 34 26" version="1.1" xmlns="http://www.w3.org/2000/svg" xmlns:xlink="http://www.w3.org/1999/xlink">
    <!-- Generator: Sketch 48.2 (47327) - http://www.bohemiancoding.com/sketch -->
    <title>piggy</title>
    <desc>Created with Sketch.</desc>
    <defs></defs>
    <g id="Select-Plan:-Deluxe-v4-collapse" stroke="none" stroke-width="1" fill="none" fill-rule="evenodd" transform="translate(-320.000000, -254.000000)">
        <g id="Highlights" transform="translate(15.000000, 254.000000)" fill="#898D97">
            <g id="promo">
                <g id="cashback-icon" transform="translate(304.000000, 0.000000)">
                    <path d="M14.5943529,14.0816659 L20.317194,14.0816659 L20.317194,12.4621872 L14.5943529,12.4621872 L14.5943529,14.0816659 Z M16.3123181,1.6198787 L18.5993083,1.6198787 L19.7430021,3.6424006 L18.5993083,5.66532839 L16.3123181,5.66532839 L15.1686243,3.6424006 L16.3123181,1.6198787 Z M15.3967669,7.28480709 L18.5013342,7.28480709 C19.1287262,7.28480709 19.7082243,6.9428495 20.0218209,6.38820848 L21.5741046,3.6424006 L20.0218209,0.896998611 C19.7082243,0.342154654 19.1287262,0.0004 18.5013342,0.0004 L15.3967669,0.0004 L13.8444832,2.74600494 C13.5308866,3.30064595 13.5308866,3.98415526 13.8444832,4.53899921 L15.3967669,7.28480709 Z M31.8066964,13.709409 L31.8066964,15.9263495 L30.2051276,15.9263495 L30.2051276,13.716309 L24.7913123,9.10343297 L10.4733786,9.10343297 L7.03077082,7.09755233 C6.07785825,6.54250543 4.89302723,7.24509131 4.89302723,8.36553516 L4.89302723,9.65097101 L3.15075726,12.1112392 L2.73242964,12.1112392 C1.77554246,12.1112392 0.9995,12.9035255 0.9995,13.8808951 L0.9995,17.5338546 L3.29463812,17.5338546 L5.62713756,20.0219259 L7.5009671,20.0219259 L8.96282838,22.6386626 L8.96282838,24.3859949 C8.96282838,25.2777228 9.67050756,26.0004 10.5437292,26.0004 L14.6194923,26.0004 L14.6194923,21.9941182 L13.0334245,21.9941182 L13.0334245,24.3809213 L10.5486975,24.3809213 L10.5486975,22.2092369 L8.42208279,18.4024472 L6.30441098,18.4024472 L3.97211027,15.9143759 L2.58556783,15.9143759 L2.58556783,13.7307179 L3.96118009,13.7307179 L6.47889633,10.1753736 L6.47889633,8.64052183 L10.0526662,10.7229117 L24.2169813,10.7229117 L28.6192585,14.4740952 L28.6192585,19.1001625 L26.2402561,22.1400336 L26.2402561,24.3809213 L23.7539393,24.3809213 L23.7539393,21.9147678 L16.34646,21.9147678 L16.34646,23.5342465 L22.1678715,23.5342465 L22.1678715,24.3859949 C22.1678715,25.2777228 22.8759481,26.0004 23.7487723,26.0004 L27.8263239,26.0004 L27.8263239,22.7076629 L30.2051276,19.6679947 L30.2051276,17.5458282 L33.4007134,17.5458282 L33.4007134,15.3339613 L34.9995,15.3339613 L34.9995,13.709409 L31.8066964,13.709409 Z" id="piggy"></path>
                </g>
            </g>
        </g>
    </g>
</svg>