<?xml version="1.0" encoding="UTF-8"?>
<svg width="20px" height="22px" viewBox="0 0 20 22" version="1.1" xmlns="http://www.w3.org/2000/svg" xmlns:xlink="http://www.w3.org/1999/xlink">
    <!-- Generator: Sketch 48.2 (47327) - http://www.bohemiancoding.com/sketch -->
    <title>renewal</title>
    <desc>Created with Sketch.</desc>
    <defs></defs>
    <g id="Select-Plan:-Deluxe-v4-collapse" stroke="none" stroke-width="1" fill="none" fill-rule="evenodd" transform="translate(-333.000000, -516.000000)">
        <g id="Highlights" transform="translate(15.000000, 254.000000)" fill="#898D97">
            <g id="worldwide" transform="translate(0.000000, 262.000000)">
                <g id="worldwide-icon" transform="translate(318.000000, 0.000000)">
                    <path d="M15.3014157,7.4812451 C15.5160257,7.2446252 15.5382055,6.88086625 15.3544008,6.61661646 C14.0741342,4.77496992 12.1225185,3.71880173 10.0000362,3.71880173 C7.09612724,3.71880173 4.55962231,5.70420681 3.64285784,8.67639372 L1.39982433,8.67639372 C1.83972341,6.74375551 2.83986745,4.97357275 4.23329194,3.66915103 C5.83660293,2.16861939 7.88453647,1.34242331 10.0000362,1.34242331 C12.615608,1.34242331 15.0845467,2.59449366 16.773907,4.77767059 C16.8878865,4.92496076 17.0560832,5.01408275 17.2363966,5.02176926 C17.4148618,5.02758608 17.5908625,4.95404486 17.7157265,4.81693412 L18.7251121,3.70280548 L18.7251121,8.67639372 L14.2185082,8.67639372 L15.3014157,7.4812451 Z M4.11684807,10.018417 C4.40662286,10.018417 4.65819913,9.80984251 4.72905123,9.51110729 C5.34864765,6.89083794 7.51610559,5.06082504 10.0000362,5.06082504 C11.527977,5.06082504 12.9780832,5.75697367 14.0051305,6.97725926 L12.2794199,8.88185209 C12.106089,9.0731839 12.0551576,9.35550738 12.1498325,9.60147573 C12.2471771,9.85471512 12.4765736,10.018417 12.7341055,10.018417 L19.3562091,10.018417 C19.7041032,10.018417 19.9873062,9.71760438 19.9873062,9.34740538 L19.9873062,2.03898742 C19.9873062,1.76808984 19.8355389,1.52523763 19.6005975,1.42053488 C19.3619594,1.31354696 19.0810155,1.37524679 18.9017289,1.57343413 L17.2815777,3.36148283 C15.381304,1.22234754 12.7404719,0.0004 10.0000362,0.0004 C7.5771,0.0004 5.23281988,0.945633135 3.39929093,2.66180257 C1.58917398,4.35615893 0.384688399,6.69348157 0.00763204356,9.24291037 C-0.0205034253,9.43382669 0.0298118292,9.62848239 0.146050335,9.77681129 C0.266190841,9.93054151 0.443013021,10.018417 0.630925094,10.018417 L4.11684807,10.018417 Z M1.26717689,13.3241985 L5.95799618,13.3241985 L4.77199376,14.6165711 C4.55430327,14.8538143 4.53335569,15.2312843 4.72352682,15.4944954 C6.00461481,17.2659246 7.92788974,18.2817905 10.0000567,18.2817905 C12.9039657,18.2817905 15.4402653,16.2963855 16.3570298,13.3241985 L18.6002686,13.3241985 C18.1601642,15.2572522 17.1600201,17.0272272 15.7665956,18.331649 C14.1632847,19.8319729 12.1155565,20.6583767 10.0000567,20.6583767 C7.41734393,20.6583767 4.96894204,19.4326898 3.28245686,17.2958397 C3.16827203,17.1512501 3.0008968,17.0642056 2.82284241,17.0569346 C2.63020686,17.0563113 2.46550142,17.1298526 2.34720923,17.2586536 L1.26717689,18.4359362 L1.26717689,13.3241985 Z M19.3689625,11.9821752 L15.8830395,11.9821752 C15.5934701,11.9821752 15.3418938,12.1907497 15.2710417,12.489485 C14.6512399,15.1099621 12.483782,16.939975 10.0000567,16.939975 C8.51811848,16.939975 7.09779072,16.278104 6.07628837,15.1174408 L7.90755827,13.1220641 C8.0827375,12.9313555 8.13490107,12.648201 8.04063698,12.401194 C7.9437031,12.1467081 7.71430662,11.9821752 7.45574782,11.9821752 L0.63607984,11.9821752 C0.287980427,11.9821752 0.00498279138,12.2831956 0.00498279138,12.6533946 L0.00498279138,20.0843813 C0.00498279138,20.3546556 0.155928555,20.5970923 0.389843146,20.7024183 C0.631356367,20.810445 0.904907057,20.752069 1.08768492,20.5530507 L2.78012579,18.7089113 C4.67505988,20.8035894 7.29350679,22.0004 10.0000567,22.0004 C12.422993,22.0004 14.7670677,21.0551669 16.600802,19.3389974 C18.4107136,17.6448488 19.6151992,15.3075262 19.9922555,12.7576819 C20.0205964,12.5669733 19.9702811,12.3723176 19.8540426,12.223781 C19.7336967,12.0702585 19.5568746,11.9821752 19.3689625,11.9821752 Z" id="renewal"></path>
                </g>
            </g>
        </g>
    </g>
</svg>