<?xml version="1.0" encoding="UTF-8"?>
<svg width="44px" height="14px" viewBox="0 0 44 14" version="1.1" xmlns="http://www.w3.org/2000/svg" xmlns:xlink="http://www.w3.org/1999/xlink">
    <!-- Generator: Sketch 48.2 (47327) - http://www.bohemiancoding.com/sketch -->
    <title>Page 1 Copy</title>
    <desc>Created with Sketch.</desc>
    <defs>
        <polygon id="path-1" points="0 6e-05 43.9999389 6e-05 43.9999389 13.95158 0 13.95158"></polygon>
    </defs>
    <g id="Page-1" stroke="none" stroke-width="1" fill="none" fill-rule="evenodd">
        <g id="Page-1-Copy">
            <mask id="mask-2" fill="white">
                <use xlink:href="#path-1"></use>
            </mask>
            <g id="Clip-2"></g>
            <path d="M21.7858463,0.24678 L18.8457907,13.74078 L15.2899389,13.74078 L18.2312167,0.24678 L21.7858463,0.24678 Z M36.7442167,8.95938 L38.61605,3.89278 L39.6934389,8.95938 L36.7442167,8.95938 Z M40.7117537,13.74078 L43.9999389,13.74078 L41.12955,0.24678 L38.0949759,0.24678 C37.4123648,0.24678 36.8369019,0.63618 36.5814574,1.23638 L31.2466611,13.74078 L34.9791241,13.74078 L35.721013,11.72478 L40.2819389,11.72478 L40.7117537,13.74078 Z M31.4314204,9.33458 C31.4473093,5.77378 26.4158278,5.57698 26.4504574,3.98578 C26.4616611,3.50218 26.9307907,2.98758 27.9584759,2.85578 C28.4671241,2.79078 29.8720685,2.74018 31.4636056,3.45918 L32.0885685,0.59838 C31.2324019,0.29318 30.1319944,-2e-05 28.762087,-2e-05 C25.2481981,-2e-05 22.7744204,1.83418 22.7544574,4.46038 C22.7310315,6.40378 24.5197537,7.48678 25.8676611,8.13318 C27.2520315,8.79418 27.7166796,9.21838 27.7113833,9.80978 C27.7011981,10.71578 26.6066981,11.11498 25.5832907,11.13058 C23.7959944,11.15778 22.7583278,10.65618 21.9316981,10.27798 L21.2879944,13.23498 C22.1178833,13.60918 23.6515685,13.93558 25.2416796,13.95158 C28.9769944,13.95158 31.4198093,12.14078 31.4314204,9.33458 Z M16.7054759,0.24678 L10.9449389,13.74078 L7.18701296,13.74078 L4.35206852,2.97158 C4.17993889,2.30858 4.03062407,2.06518 3.50751296,1.78638 C2.65277222,1.33058 1.24151296,0.90338 -6.11111111e-05,0.63818 L0.0836611111,0.24678 L6.13386481,0.24678 C6.90447593,0.24678 7.59829074,0.75018 7.77327222,1.62238 L9.27069815,9.43098 L12.9709759,0.24678 L16.7054759,0.24678 Z" id="Fill-1" fill="#1A2D71" mask="url(#mask-2)"></path>
        </g>
    </g>
</svg>