<?xml version="1.0" encoding="UTF-8" standalone="no"?>
<!DOCTYPE svg  PUBLIC '-//W3C//DTD SVG 1.1//EN'  'http://www.w3.org/Graphics/SVG/1.1/DTD/svg11.dtd'>
<svg xmlns="http://www.w3.org/2000/svg" version="1.1">
<defs>
<font id="SanomatGrabApp-Medium" horiz-adv-x="555">
<font-face underline-position="-141" x-height="537" descent="-210" font-family="Sanomat Grab App Medium" units-per-em="1000" panose-1="0 0 0 0 0 0 0 0 0 0" ascent="790" cap-height="705" unicode-range="U+0020-2044" font-weight="500" underline-thickness="68" bbox="-228 -226 955 968"/>
<missing-glyph/>
<glyph unicode=" " horiz-adv-x="222" glyph-name="space"/>
<glyph unicode="!" horiz-adv-x="276" d="M210 705l-20 -485h-105l-19 485h144zM209 128v-128h-144v128h144z" glyph-name="exclam"/>
<glyph unicode='&quot;' horiz-adv-x="396" d="M65 470l-18 235h127l-19 -235h-90zM240 470l-19 235h127l-18 -235h-90z" glyph-name="quotedbl"/>
<glyph unicode="#" horiz-adv-x="571" d="M212 176l-23 -176h-96l22 176h-93v113h108l16 126h-95v113h109l21 162h99l-21 -162h98l21 162h99l-21 -162h92v-113h-106l-16 -126h93v-113h-108l-22 -176h-99l22 176h-100zM244 415l-17 -126h100l16 126h-99z" glyph-name="numbersign"/>
<glyph unicode="$" horiz-adv-x="550" d="M223 -131h-79l22 125q-63 11 -119 43v120l5 2q35 -23 66 -37.5t66 -22.5l34 198q-86 29 -130 76t-44 121q0 96 64 150.5t168 54.5h17l15 84h79l-16 -93q50 -10 90 -32v-113l-5 -2q-56 33 -103 43l-33 -187q66 -20 105.5 -43.5t59.5 -60.5t20 -94q0 -102 -67.5 -158 t-184.5 -56h-9zM275 594q-52 -1 -78.5 -22t-26.5 -58q0 -33 17 -54t58 -36zM262 93q51 3 79 27t28 65q0 34 -17 52t-59 35z" glyph-name="dollar"/>
<glyph unicode="%" horiz-adv-x="832" d="M56 613.5q22 39.5 62 62t90 22.5q51 0 90.5 -22.5t61.5 -62t22 -89.5q0 -77 -48.5 -126t-125.5 -49q-50 0 -90 22t-62 62t-22 91q0 50 22 89.5zM691 690l-463 -690h-85l463 690h85zM262.5 592.5q-19.5 26.5 -54.5 26.5t-54.5 -26.5t-19.5 -68.5q0 -43 19.5 -69.5 t54.5 -26.5t54.5 26.5t19.5 69.5q0 42 -19.5 68.5zM470.5 251q22.5 40 62.5 62.5t90 22.5q51 0 90.5 -22.5t61.5 -62t22 -89.5q0 -77 -48.5 -126t-125.5 -49q-50 0 -90 22.5t-62.5 62t-22.5 90.5q0 49 22.5 89zM676.5 230.5q-19.5 26.5 -53.5 26.5q-35 0 -54.5 -26.5 t-19.5 -68.5t20 -69t54 -27t53.5 26.5t19.5 69.5q0 42 -19.5 68.5z" glyph-name="percent"/>
<glyph unicode="&amp;" horiz-adv-x="704" d="M394.5 3q-44.5 -18 -106.5 -18q-78 0 -136 28t-89 78.5t-31 118.5q0 75 39.5 129t110.5 84q-28 53 -28 110q0 50 24.5 92t71.5 67.5t112 25.5q47 0 80.5 -7t62.5 -21v-112l-6 -3q-29 15 -53.5 22t-57.5 7q-43 0 -67.5 -20.5t-24.5 -54.5q0 -29 14 -53t49 -70l134 -165 q20 63 30 172h116q-4 -70 -19.5 -144t-45.5 -128l108 -134v-7h-164l-43 54q-36 -33 -80.5 -51zM235 348q-34 -20 -52.5 -54t-18.5 -74q0 -59 36.5 -95.5t102.5 -36.5q62 0 111 40z" glyph-name="ampersand"/>
<glyph unicode="&apos;" horiz-adv-x="222" d="M65 470l-18 235h127l-19 -235h-90z" glyph-name="quotesingle"/>
<glyph unicode="(" horiz-adv-x="363" d="M91.5 558.5q43.5 113.5 126.5 215.5h122q-76 -108 -117 -219t-41 -252t41.5 -253t116.5 -220h-122q-83 102 -126.5 216.5t-43.5 256.5t43.5 255.5z" glyph-name="parenleft"/>
<glyph unicode=")" horiz-adv-x="363" d="M139 555q-41 111 -117 219h122q83 -102 126.5 -215.5t43.5 -255.5t-43.5 -256.5t-126.5 -216.5h-122q75 108 116.5 220t41.5 253t-41 252z" glyph-name="parenright"/>
<glyph unicode="*" horiz-adv-x="423" d="M260 377h-99l17 123l-97 -76l-45 81l116 47l-116 48l45 81l97 -76l-17 123h99l-17 -124l97 77l46 -81l-115 -47l115 -48l-46 -81l-97 77z" glyph-name="asterisk"/>
<glyph unicode="+" d="M58 297v98h167v183h104v-183h167v-98h-167v-183h-104v183h-167z" glyph-name="plus"/>
<glyph unicode="," horiz-adv-x="274" d="M218 128l3 -9l-79 -233h-102l35 242h143z" glyph-name="comma"/>
<glyph unicode="-" horiz-adv-x="354" d="M305 363v-111h-257v111h257z" glyph-name="hyphen"/>
<glyph unicode="." horiz-adv-x="273" d="M208 128v-128h-144v128h144z" glyph-name="period"/>
<glyph unicode="/" horiz-adv-x="441" d="M103 -170h-111l311 944h110z" glyph-name="slash"/>
<glyph unicode="0" horiz-adv-x="652" d="M76 533.5q36 79.5 100.5 121.5t149.5 42t149.5 -42t100.5 -121t36 -189t-36 -190.5t-101 -123.5t-149 -43t-149 43t-101 123.5t-36 190.5q0 109 36 188.5zM430 527q-36 61 -104 61q-67 0 -103.5 -61t-36.5 -182q0 -122 36.5 -185t103.5 -63t103.5 63t36.5 185 q0 121 -36 182z" glyph-name="zero"/>
<glyph unicode="1" horiz-adv-x="388" d="M156 539l-120 -76l-6 3v119l168 105h98v-690h-140v539z" glyph-name="one"/>
<glyph unicode="2" horiz-adv-x="511" d="M237 305q43 52 64 95t21 88q0 44 -26.5 71t-83.5 27q-49 0 -83.5 -12t-78.5 -39l-5 3v111q36 23 81 35.5t108 12.5q103 0 165.5 -52.5t62.5 -146.5q0 -65 -32 -124.5t-94 -133.5l-122 -134h256v-106h-432v79z" glyph-name="two"/>
<glyph unicode="3" horiz-adv-x="528" d="M37 154l5 3q47 -30 87.5 -44t98.5 -14q61 0 91 27.5t30 73.5q0 103 -128 103h-74v103h65q116 0 116 94q0 43 -27.5 66t-83.5 23q-51 0 -83.5 -10.5t-75.5 -36.5l-6 3v107q36 23 79 34t108 11q100 0 162.5 -46.5t62.5 -136.5q0 -111 -112 -152q66 -17 101 -59t35 -108 q0 -97 -64.5 -152t-178.5 -55q-72 0 -119 14.5t-89 38.5v113z" glyph-name="three"/>
<glyph unicode="4" horiz-adv-x="587" d="M469 0h-139v164h-303v79l308 447h134v-424h97v-102h-97v-164zM161 266h169v245z" glyph-name="four"/>
<glyph unicode="5" horiz-adv-x="518" d="M26 149l6 3q43 -29 81 -42t89 -13q69 0 102 30.5t33 85.5q0 109 -145 109q-41 0 -68.5 -5.5t-57.5 -14.5l-7 3v382h385v-105h-267v-160q23 4 54 4q115 0 180 -56t65 -154q0 -105 -67 -166.5t-187 -61.5q-118 0 -196 50v111z" glyph-name="five"/>
<glyph unicode="6" horiz-adv-x="586" d="M112.5 73.5q-70.5 85.5 -70.5 241.5q0 126 40.5 211.5t110.5 128t159 42.5q98 0 154 -32v-116l-7 -3q-58 42 -136 42q-161 0 -179 -210q28 24 67.5 39t88.5 15q59 0 107 -25t76.5 -73.5t28.5 -116.5q0 -64 -27.5 -116t-82 -82.5t-131.5 -30.5q-128 0 -198.5 85.5z M385 306q-29 29 -85 29q-65 0 -119 -42q4 -102 35 -150.5t92 -48.5q55 0 80.5 34t25.5 90q0 59 -29 88z" glyph-name="six"/>
<glyph unicode="7" horiz-adv-x="521" d="M166.5 207.5q43.5 103.5 109.5 228.5l70 140h-316v111h456v-92l-87 -181q-127 -258 -157 -414h-141q22 104 65.5 207.5z" glyph-name="seven"/>
<glyph unicode="8" horiz-adv-x="574" d="M71.5 277.5q36.5 42.5 92.5 64.5q-52 27 -80.5 70t-28.5 96q0 58 30.5 100.5t82.5 65.5t114 23q105 0 170.5 -46t65.5 -137q0 -50 -31 -88t-80 -61q65 -29 98 -71t33 -106q0 -93 -66.5 -146.5t-181.5 -53.5q-78 0 -135.5 23.5t-88.5 66.5t-31 100t36.5 99.5zM373 446.5 q19 27.5 19 59.5q0 44 -29 68.5t-78 24.5q-46 0 -72.5 -24t-26.5 -62q0 -35 29.5 -63.5t96.5 -50.5l5 -2q37 22 56 49.5zM370.5 251q-32.5 28 -110.5 54l-6 2q-42 -20 -65 -48.5t-23 -69.5q0 -49 31.5 -75t89.5 -26q55 0 85.5 26t30.5 68q0 41 -32.5 69z" glyph-name="eight"/>
<glyph unicode="9" horiz-adv-x="585" d="M65 136l6 3q59 -42 138 -42q88 0 135.5 47t56.5 162q-60 -53 -156 -53q-94 0 -153.5 56t-59.5 161q0 63 29 115t84.5 82t131.5 30q127 0 196 -84.5t69 -242.5q0 -197 -86 -289.5t-236 -92.5q-95 0 -155 33v115zM370.5 543.5q-29.5 48.5 -90.5 48.5q-55 0 -82.5 -33.5 t-27.5 -88.5q0 -120 114 -120q66 0 119 42q-3 103 -32.5 151.5z" glyph-name="nine"/>
<glyph unicode=":" horiz-adv-x="279" d="M211 474v-127h-144v127h144zM211 128v-128h-144v128h144z" glyph-name="colon"/>
<glyph unicode=";" horiz-adv-x="280" d="M216 474v-127h-143v127h143zM218 128l3 -9l-78 -233h-103l36 242h142z" glyph-name="semicolon"/>
<glyph unicode="&lt;" horiz-adv-x="534" d="M63 378l390 213l4 -3v-113l-243 -130l243 -130v-113l-4 -3l-390 214v65z" glyph-name="less"/>
<glyph unicode="=" horiz-adv-x="557" d="M487 454v-94h-418v94h418zM487 264v-94h-418v94h418z" glyph-name="equal"/>
<glyph unicode="&gt;" horiz-adv-x="534" d="M76 215l243 130l-243 130v113l4 3l390 -214v-65l-390 -213l-4 3v113z" glyph-name="greater"/>
<glyph unicode="?" horiz-adv-x="486" d="M377 671q58 -47 58 -135q0 -62 -26 -105.5t-80 -86.5q-33 -28 -47.5 -49t-14.5 -53v-22h-124v25q0 57 20 93t70 78q34 28 49 51.5t15 59.5q0 35 -23.5 56t-68.5 21q-46 0 -80.5 -12t-72.5 -38l-6 3v115q71 46 177 46q96 0 154 -47zM277 128v-128h-145v128h145z" glyph-name="question"/>
<glyph unicode="@" horiz-adv-x="927" d="M98.5 469q58.5 105 159.5 163.5t226 58.5q120 0 211.5 -49t141.5 -135.5t50 -193.5q0 -90 -28 -154t-76 -96.5t-107 -32.5q-52 0 -87.5 18.5t-51.5 53.5q-54 -72 -133 -72t-125.5 54.5t-46.5 139.5q0 73 28 131t77 90.5t110 32.5q70 0 113 -54l5 42h117l-34 -281 q-2 -20 -2 -26q0 -33 13.5 -46.5t38.5 -13.5q29 0 55 21.5t43.5 69.5t17.5 123q0 95 -41 166.5t-116 110t-175 38.5q-98 0 -182.5 -48.5t-135.5 -140t-51 -213.5q0 -99 44 -176.5t126 -121.5t194 -44q63 0 108 11t86 34l5 -2v-64q-41 -23 -88.5 -33t-111.5 -10 q-132 0 -231 53.5t-152 147t-53 210.5q0 133 58.5 238zM527 170l22 169q-19 23 -38.5 32t-47.5 9q-49 0 -78.5 -42t-29.5 -109q0 -48 22.5 -74t58.5 -26q55 0 91 40v1z" glyph-name="at"/>
<glyph unicode="A" horiz-adv-x="700" d="M206 157l-55 -157h-133v7l262 698h140l262 -698v-7h-151l-55 157h-270zM243 263h196l-98 279z" glyph-name="A"/>
<glyph unicode="B" horiz-adv-x="654" d="M337 705q116 0 178 -45t62 -136q0 -54 -26.5 -91.5t-85.5 -53.5q75 -18 112 -64.5t37 -110.5q0 -97 -65.5 -150.5t-191.5 -53.5h-276v705h256zM226 419h108q54 0 78.5 22t24.5 67t-26.5 66t-81.5 21h-103v-176zM226 111h111q69 0 99.5 23.5t30.5 78.5q0 54 -31.5 78.5 t-98.5 24.5h-111v-205z" glyph-name="B"/>
<glyph unicode="C" horiz-adv-x="686" d="M90 543.5q48 82.5 134 128.5t195 46q66 0 111.5 -10t86.5 -31v-126l-5 -3q-39 27 -81.5 40.5t-98.5 13.5q-72 0 -126 -30t-83.5 -86t-29.5 -131t30 -132t86 -88t130 -31q60 0 104 16.5t87 51.5l6 -3v-125q-39 -27 -87.5 -42t-122.5 -15q-113 0 -200.5 47t-135.5 131 t-48 190t48 188.5z" glyph-name="C"/>
<glyph unicode="D" horiz-adv-x="742" d="M297 705q182 0 292 -89t110 -268t-109 -263.5t-293 -84.5h-216v705h216zM227 113h61q126 0 193.5 53t67.5 182q0 244 -261 244h-61v-479z" glyph-name="D"/>
<glyph unicode="E" horiz-adv-x="565" d="M502 705v-112h-276v-175h238v-110h-238v-196h279v-112h-424v705h421z" glyph-name="E"/>
<glyph unicode="F" horiz-adv-x="543" d="M226 0h-145v705h418v-112h-273v-200h244v-111h-244v-282z" glyph-name="F"/>
<glyph unicode="G" horiz-adv-x="731" d="M217.5 33q-85.5 46 -130.5 129.5t-45 192.5q0 107 48.5 189.5t135 128t197.5 45.5q71 0 121 -12t92 -33v-124l-6 -3q-87 56 -195 56q-113 0 -177.5 -67.5t-64.5 -182.5q0 -117 58 -183t171 -66q56 0 105 20v160h-143v108h284v-328q-51 -35 -109.5 -55.5t-139.5 -20.5 q-116 0 -201.5 46z" glyph-name="G"/>
<glyph unicode="H" horiz-adv-x="774" d="M228 297v-297h-147v705h147v-288h317v288h147v-705h-147v297h-317z" glyph-name="H"/>
<glyph unicode="I" horiz-adv-x="313" d="M230 705v-705h-147v705h147z" glyph-name="I"/>
<glyph unicode="J" horiz-adv-x="316" d="M43.5 -54.5q22.5 13.5 33 40.5t10.5 75v644h146v-644q0 -85 -24.5 -136t-79 -77.5t-149.5 -34.5v111q41 8 63.5 21.5z" glyph-name="J"/>
<glyph unicode="K" horiz-adv-x="682" d="M228 227v-227h-147v705h147v-312l264 312h148v-6l-233 -277l249 -416v-6h-161l-193 316z" glyph-name="K"/>
<glyph unicode="L" horiz-adv-x="535" d="M228 705v-588h264v-117h-411v705h147z" glyph-name="L"/>
<glyph unicode="M" horiz-adv-x="881" d="M204 0h-123v705h178l178 -479l183 479h179v-705h-138v492l-186 -492h-89l-182 498v-498z" glyph-name="M"/>
<glyph unicode="N" horiz-adv-x="770" d="M212 0h-131v705h145l331 -462v462h131v-705h-123l-353 493v-493z" glyph-name="N"/>
<glyph unicode="O" horiz-adv-x="810" d="M88 541q46 83 128.5 130t188.5 47t188 -47t128 -130t46 -186t-46 -187t-128.5 -132.5t-187.5 -48.5q-106 0 -188.5 48.5t-128.5 132.5t-46 187t46 186zM591 487q-26 56 -74 86.5t-112 30.5t-112 -30.5t-74 -86.5t-26 -132t26 -133.5t74 -89t112 -31.5t112 31.5t74 89 t26 133.5t-26 132z" glyph-name="O"/>
<glyph unicode="P" horiz-adv-x="623" d="M226 0h-145v705h235q127 0 198.5 -57t71.5 -169q0 -109 -69.5 -165.5t-188.5 -56.5h-102v-257zM226 363h92q67 0 97.5 29.5t30.5 89.5q0 57 -32.5 84t-100.5 27h-87v-230z" glyph-name="P"/>
<glyph unicode="Q" horiz-adv-x="810" d="M183.5 57q-67.5 51 -104.5 128.5t-37 169.5q0 103 46 186t128.5 130t188.5 47t188 -47t128 -130t46 -186q0 -91 -35.5 -167t-100.5 -126t-151 -65q18 -32 55 -50t106 -18q41 0 76 11l5 -4v-101q-33 -11 -89 -11q-119 0 -191.5 48t-102.5 120q-88 14 -155.5 65zM591 487 q-26 56 -74 86.5t-112 30.5t-112 -30.5t-74 -86.5t-26 -132t26 -133.5t74 -89t112 -31.5q102 0 157 68t55 186q0 76 -26 132z" glyph-name="Q"/>
<glyph unicode="R" horiz-adv-x="658" d="M226 265v-265h-145v705h245q128 0 197.5 -56t69.5 -161q0 -72 -35 -121t-99 -70l181 -288v-9h-154l-162 265h-98zM226 372h92q133 0 133 115q0 56 -33 82t-105 26h-87v-223z" glyph-name="R"/>
<glyph unicode="S" horiz-adv-x="550" d="M47 167l5 2q48 -32 93 -48.5t103 -16.5q57 0 87 23.5t30 66.5q0 36 -22 55t-84 41l-49 16q-81 27 -123.5 76.5t-42.5 127.5q0 64 29.5 111t82.5 72t121 25q112 0 184 -41v-122l-5 -3q-43 26 -83 38.5t-91 12.5t-77.5 -22t-26.5 -59q0 -33 19.5 -53.5t67.5 -37.5l49 -16 q100 -32 145.5 -78t45.5 -132q0 -104 -67.5 -161t-183.5 -57q-122 0 -207 51v129z" glyph-name="S"/>
<glyph unicode="T" horiz-adv-x="586" d="M366 0h-147v587h-194v118h534v-118h-193v-587z" glyph-name="T"/>
<glyph unicode="U" horiz-adv-x="729" d="M72 705h147v-432q0 -81 39.5 -123t110.5 -42q72 0 112.5 42.5t40.5 122.5v432h134v-435q0 -133 -77.5 -207.5t-213.5 -74.5q-138 0 -215.5 73t-77.5 209v435z" glyph-name="U"/>
<glyph unicode="V" horiz-adv-x="696" d="M24 698v7h152l179 -531l178 531h139v-7l-253 -698h-144z" glyph-name="V"/>
<glyph unicode="W" horiz-adv-x="980" d="M373 0h-132l-217 698v7h151l150 -511l108 328l-51 176v7h142l152 -519l142 519h136l1 -7l-211 -698h-143l-109 351z" glyph-name="W"/>
<glyph unicode="X" horiz-adv-x="681" d="M165 0h-137v7l222 367l-205 324v7h161l143 -241l144 241h137v-7l-205 -331l227 -360v-7h-161l-164 277z" glyph-name="X"/>
<glyph unicode="Y" horiz-adv-x="633" d="M244 284l-226 414v7h152l154 -304l154 304h135v-7l-222 -408v-290h-147v284z" glyph-name="Y"/>
<glyph unicode="Z" horiz-adv-x="624" d="M40 103l360 488h-333v114h499v-116l-352 -475h361v-114h-535v103z" glyph-name="Z"/>
<glyph unicode="[" horiz-adv-x="397" d="M347 774v-99h-135v-746h135v-99h-265v944h265z" glyph-name="bracketleft"/>
<glyph unicode="\" horiz-adv-x="441" d="M333 -170l-310 944h110l311 -944h-111z" glyph-name="backslash"/>
<glyph unicode="]" horiz-adv-x="397" d="M184 -71v746h-135v99h264v-944h-264v99h135z" glyph-name="bracketright"/>
<glyph unicode="^" horiz-adv-x="545" d="M232 705h79l201 -316h-128l-112 179l-113 -179h-127z" glyph-name="asciicircum"/>
<glyph unicode="_" horiz-adv-x="407" d="M405 -66v-78h-404v78h404z" glyph-name="underscore"/>
<glyph unicode="`" horiz-adv-x="424" d="M210 771l87 -168h-108l-122 168h143z" glyph-name="grave"/>
<glyph unicode="a" d="M216 -13q-80 0 -130 41.5t-50 117.5q0 78 54 115t161 53l107 15v2q0 62 -27.5 86.5t-89.5 24.5q-48 0 -84 -10t-74 -30l-6 2v103q68 42 183 42q114 0 172.5 -50.5t58.5 -163.5v-335h-115l-10 60q-52 -73 -150 -73zM358 243l-78 -12q-62 -9 -87.5 -26.5t-25.5 -52.5 q0 -33 20.5 -51.5t61.5 -18.5q69 0 109 52v109z" glyph-name="a"/>
<glyph unicode="b" horiz-adv-x="629" d="M176 0h-109v727l133 27v-277q58 72 158 72q69 0 121.5 -32t82 -94t29.5 -149q0 -89 -31 -154t-86 -99t-128 -34q-96 0 -157 72zM419.5 401q-36.5 42 -95.5 42q-42 0 -71 -13t-53 -39v-256q24 -22 53 -33t68 -11q61 0 98 47t37 136q0 85 -36.5 127z" glyph-name="b"/>
<glyph unicode="c" horiz-adv-x="520" d="M73.5 419.5q36.5 63.5 100.5 96.5t145 33q48 0 86 -9.5t61 -23.5v-104l-5 -3q-63 36 -129 36q-69 0 -114 -46t-45 -130q0 -86 43.5 -132.5t117.5 -46.5q42 0 75 11.5t64 32.5l6 -2v-101q-59 -44 -156 -44q-86 0 -150.5 34t-100 97.5t-35.5 150.5t36.5 150.5z" glyph-name="c"/>
<glyph unicode="d" horiz-adv-x="627" d="M271 -13q-70 0 -123 32t-82 94t-29 149q0 89 30.5 154t84.5 99t125 34q91 0 149 -64v242l133 27v-754h-106l-15 69q-61 -82 -167 -82zM426 401q-24 23 -52.5 34t-66.5 11q-61 0 -98.5 -47.5t-37.5 -136.5q0 -84 37 -126t96 -42q40 0 69 12t53 36v259z" glyph-name="d"/>
<glyph unicode="e" horiz-adv-x="571" d="M113 62q-76 75 -76 209q0 82 33 145t92.5 98t136.5 35q107 0 170.5 -63.5t63.5 -193.5q0 -15 -2 -49h-364q7 -77 50.5 -114t123.5 -37q52 0 93 12t79 34l6 -3v-105q-31 -18 -79 -30.5t-109 -12.5q-142 0 -218 75zM405 333q-3 58 -29.5 88.5t-76.5 30.5q-52 0 -84.5 -30 t-43.5 -89h234z" glyph-name="e"/>
<glyph unicode="f" horiz-adv-x="385" d="M230 0h-133v437h-66v100h66v39q0 99 56 140t138 41q49 0 75 -7v-92q-24 3 -52 3q-35 0 -59.5 -21t-24.5 -70v-33h116v-100h-116v-437z" glyph-name="f"/>
<glyph unicode="g" horiz-adv-x="625" d="M84 -62l5 2q35 -21 81.5 -33.5t96.5 -12.5q84 0 121.5 29t37.5 87v65q-59 -68 -157 -68q-69 0 -121.5 31t-81.5 90t-29 141q0 86 30.5 149.5t85 97t124.5 33.5q96 0 156 -70l6 58h120v-526q0 -119 -73 -172.5t-200 -53.5q-61 0 -114.5 11.5t-87.5 30.5v111zM426 401 q-24 23 -52.5 34t-66.5 11q-61 0 -98.5 -46t-37.5 -131q0 -81 37 -121.5t96 -40.5q41 0 69.5 12.5t52.5 37.5v244z" glyph-name="g"/>
<glyph unicode="h" horiz-adv-x="600" d="M200 0h-133v727l133 27v-277q34 33 73 52.5t91 19.5q81 0 126 -45.5t45 -135.5v-368h-133v344q0 98 -90 98q-32 0 -58.5 -9.5t-53.5 -29.5v-403z" glyph-name="h"/>
<glyph unicode="i" horiz-adv-x="274" d="M204 738v-117h-135v117h135zM203 537v-537h-133v537h133z" glyph-name="i"/>
<glyph unicode="j" horiz-adv-x="269" d="M202 738v-117h-135v117h135zM50 -83.5q18 21.5 18 76.5v544h133v-553q0 -100 -52 -147t-158 -53v106q41 5 59 26.5z" glyph-name="j"/>
<glyph unicode="k" horiz-adv-x="564" d="M200 166v-166h-133v727l133 27v-447l188 230h138v-7l-170 -206l186 -317v-7h-143l-142 235z" glyph-name="k"/>
<glyph unicode="l" horiz-adv-x="275" d="M204 754v-754h-134v727z" glyph-name="l"/>
<glyph unicode="m" horiz-adv-x="897" d="M200 0h-133v537h117l9 -61q33 33 71 53t88 20q106 0 144 -84q34 39 74.5 61.5t97.5 22.5q77 0 121 -45.5t44 -135.5v-368h-134v345q0 97 -80 97q-31 0 -55 -9t-48 -28v-405h-133v345q0 97 -80 97q-31 0 -55 -9t-48 -28v-405z" glyph-name="m"/>
<glyph unicode="n" horiz-adv-x="600" d="M200 0h-133v537h117l9 -64q36 35 75.5 55.5t93.5 20.5q81 0 127 -45.5t46 -135.5v-368h-133v344q0 98 -90 98q-33 0 -59.5 -9.5t-52.5 -29.5v-403z" glyph-name="n"/>
<glyph unicode="o" horiz-adv-x="637" d="M73.5 417.5q36.5 63.5 100 97.5t143.5 34q81 0 145 -34t101 -97.5t37 -148.5q0 -84 -37 -148t-101.5 -99t-144.5 -35t-143.5 35t-100 99t-36.5 148q0 85 36.5 148.5zM424.5 400q-40.5 47 -107.5 47q-65 0 -105.5 -47t-40.5 -131q0 -85 40 -132t106 -47q67 0 107.5 47 t40.5 132q0 84 -40.5 131z" glyph-name="o"/>
<glyph unicode="p" horiz-adv-x="629" d="M201 -201h-134v738h118l9 -67q60 79 164 79q69 0 121.5 -32t82 -94t29.5 -149q0 -89 -30.5 -154t-84.5 -99t-124 -34q-92 0 -151 65v-253zM419.5 401q-36.5 42 -95.5 42q-42 0 -70.5 -12.5t-52.5 -38.5v-256q24 -23 52 -34t68 -11q61 0 98 47t37 136q0 85 -36.5 127z" glyph-name="p"/>
<glyph unicode="q" horiz-adv-x="627" d="M426 58q-58 -71 -157 -71q-69 0 -121.5 32t-81.5 94t-29 149q0 89 30.5 154t85 99t124.5 34q96 0 156 -70l8 58h118v-738h-133v259zM426 401q-24 23 -52.5 34t-66.5 11q-61 0 -98.5 -47.5t-37.5 -136.5q0 -84 37 -126t96 -42q41 0 69.5 12.5t52.5 37.5v257z" glyph-name="q"/>
<glyph unicode="r" horiz-adv-x="413" d="M200 0h-133v537h117l10 -83q24 40 61 65.5t86 25.5q26 0 43 -4v-124l-6 -3q-18 5 -43 5q-49 0 -80 -12t-55 -42v-365z" glyph-name="r"/>
<glyph unicode="s" horiz-adv-x="470" d="M39 146l5 2q77 -59 171 -59q44 0 67.5 16t23.5 45q0 26 -16 39t-59 24l-52 14q-140 37 -140 158q0 76 54.5 121t145.5 45q92 0 159 -31v-102l-5 -3q-32 17 -71.5 27t-81.5 10q-78 0 -78 -55q0 -23 14.5 -36.5t45.5 -21.5l51 -13q58 -15 92 -34t51 -49t17 -78 q0 -84 -58 -130t-152 -46q-62 0 -106 12.5t-78 34.5v110z" glyph-name="s"/>
<glyph unicode="t" horiz-adv-x="395" d="M140.5 21q-42.5 31 -42.5 103v313h-64v100h64v92l134 21v-113h115v-100h-115v-291q0 -28 14.5 -40t44.5 -12q28 0 56 8l6 -3v-96q-43 -13 -100 -13q-70 0 -112.5 31z" glyph-name="t"/>
<glyph unicode="u" horiz-adv-x="605" d="M242 -13q-83 0 -131.5 46.5t-48.5 135.5v368h133v-345q0 -97 93 -97q34 0 62 9t54 28v405h133v-537h-117l-9 60q-75 -73 -169 -73z" glyph-name="u"/>
<glyph unicode="v" horiz-adv-x="573" d="M18 529v8h140l136 -364l133 364h127v-7l-210 -530h-113z" glyph-name="v"/>
<glyph unicode="w" horiz-adv-x="776" d="M278 0h-98l-157 530v7h133l86 -333l103 333h92l105 -335l85 335h125v-7l-155 -530h-97l-113 346z" glyph-name="w"/>
<glyph unicode="x" horiz-adv-x="557" d="M151 0h-126v7l176 272l-167 250v8h146l104 -167l106 167h126v-7l-166 -252l181 -271v-7h-146l-117 186z" glyph-name="x"/>
<glyph unicode="y" horiz-adv-x="564" d="M155.5 -78.5q27.5 18.5 41.5 53.5l20 50l-199 505v7h141l131 -358l128 358h127v-7l-217 -577q-32 -86 -88 -123t-162 -44v111q50 6 77.5 24.5z" glyph-name="y"/>
<glyph unicode="z" horiz-adv-x="508" d="M41 73l262 362h-244v102h401v-84l-255 -352h262v-101h-426v73z" glyph-name="z"/>
<glyph unicode="{" horiz-adv-x="398" d="M143 151q5 22 5 35q0 35 -26.5 50.5t-86.5 17.5v97q60 1 86.5 17t26.5 51q0 13 -5 35l-28 121q-6 29 -6 52q0 75 61.5 111t184.5 36v-97q-61 0 -88 -15.5t-27 -53.5q0 -20 5 -39l25 -108q6 -27 6 -50q0 -43 -24 -68.5t-77 -39.5q53 -14 77.5 -39.5t24.5 -67.5 q0 -22 -6 -49l-26 -112q-5 -19 -5 -39q0 -37 27 -53t88 -16v-97q-123 0 -184.5 36t-61.5 110q0 23 6 52z" glyph-name="braceleft"/>
<glyph unicode="|" horiz-adv-x="262" d="M181 774v-944h-101v944h101z" glyph-name="bar"/>
<glyph unicode="}" horiz-adv-x="398" d="M129.5 -57q27.5 16 27.5 53q0 14 -5 39l-26 112q-6 27 -6 49q0 42 24 67.5t77 39.5q-53 14 -77 39.5t-24 68.5q0 23 6 50l26 108q5 25 5 39q0 38 -27.5 53.5t-88.5 15.5v97q123 0 185 -35.5t62 -110.5q0 -20 -7 -53l-27 -121q-5 -22 -5 -35q0 -35 26.5 -51t86.5 -17v-97 q-60 -2 -86.5 -17.5t-26.5 -50.5q0 -13 5 -35l27 -123q7 -33 7 -53q0 -74 -62 -109.5t-185 -35.5v97q61 0 88.5 16z" glyph-name="braceright"/>
<glyph unicode="~" horiz-adv-x="440" d="M351.5 252.5q-25.5 -14.5 -58.5 -14.5q-28 0 -49 6t-44 16q-19 8 -32 11.5t-26 3.5q-29 0 -48.5 -10.5t-40.5 -36.5l-6 2v107q14 23 40 37t59 14q27 0 46.5 -5.5t45.5 -15.5q22 -9 35.5 -13t29.5 -4q25 0 43.5 11t39.5 38l7 -3v-106q-16 -23 -41.5 -37.5z" glyph-name="asciitilde"/>
<glyph unicode=" " horiz-adv-x="222" glyph-name="uni00A0"/>
<glyph unicode="¡" horiz-adv-x="276" d="M66 442v128h144v-128h-144zM65 -135l20 486h105l19 -486h-144z" glyph-name="exclamdown"/>
<glyph unicode="¢" horiz-adv-x="513" d="M329 -111h-85l9 104q-102 18 -160.5 91t-58.5 185q0 83 34.5 145t94.5 96.5t136 38.5l6 74h85l-7 -79q49 -8 81 -28v-104l-6 -2q-42 25 -83 33l-30 -354q37 2 66.5 13t58.5 31l6 -1v-101q-53 -40 -139 -44zM290 443q-55 -11 -89.5 -56.5t-34.5 -117.5q0 -63 25.5 -106.5 t70.5 -61.5z" glyph-name="cent"/>
<glyph unicode="£" horiz-adv-x="557" d="M37 0v88q30 26 45 48t21.5 45t14.5 72l4 28h-56v91h71l22 139q14 96 66 141t143 45q44 0 77.5 -7.5t64.5 -23.5v-105l-7 -3q-29 16 -54 23.5t-55 7.5q-41 0 -65 -21t-33 -71l-22 -125h151v-91h-167l-4 -25q-10 -59 -23.5 -89t-50.5 -61h339v-106h-482z" glyph-name="sterling"/>
<glyph unicode="¥" horiz-adv-x="607" d="M379 0h-147v138h-155v76h155v56h-155v75h143l-192 338v7h152l131 -259l132 259h135v-7l-191 -338h147v-75h-155v-56h155v-76h-155v-138z" glyph-name="yen"/>
<glyph unicode="¦" horiz-adv-x="262" d="M181 774v-407h-101v407h101zM181 267v-437h-101v437h101z" glyph-name="brokenbar"/>
<glyph unicode="§" horiz-adv-x="533" d="M78 4l5 2q34 -24 68.5 -36.5t79.5 -12.5q44 0 65 16t21 45q0 23 -15 38.5t-45 31.5l-77 44q-74 38 -109 80.5t-35 104.5q0 87 105 135q-40 44 -40 106q0 76 50.5 118t136.5 42q88 0 145 -32v-98l-5 -3q-33 18 -64 27t-70 9q-72 0 -72 -56q0 -22 15 -39t52 -38l59 -33 q55 -30 85 -53.5t46 -53.5t16 -74q0 -48 -26.5 -81.5t-73.5 -56.5q25 -22 37 -48t12 -61q0 -82 -57.5 -125t-147.5 -43q-94 0 -161 40v105zM376 255q0 31 -16.5 48.5t-55.5 40.5l-76 42l-29 18q-24 -13 -35.5 -30t-11.5 -41q0 -30 17.5 -49.5t55.5 -41.5l95 -54l6 -3 q50 27 50 70z" glyph-name="section"/>
<glyph unicode="¨" horiz-adv-x="427" d="M177 739v-115h-123v115h123zM372 739v-115h-123v115h123z" glyph-name="dieresis"/>
<glyph unicode="©" horiz-adv-x="812" d="M588.5 671q82.5 -47 130 -130.5t47.5 -188.5q0 -104 -47.5 -187.5t-130 -130.5t-183.5 -47t-183 47t-129.5 130.5t-47.5 187.5q0 105 47.5 188.5t129.5 130.5t183 47t183.5 -47zM253 621.5q-68 -40.5 -106.5 -111.5t-38.5 -158q0 -86 39 -156.5t106.5 -111.5t151.5 -41 q85 0 153 41t106.5 111.5t38.5 156.5q0 88 -38.5 158.5t-106.5 111t-153 40.5q-84 0 -152 -40.5zM244.5 462.5q26.5 45.5 73 70t104.5 24.5q71 0 115 -26v-85l-4 -2q-48 28 -102 28q-46 0 -76 -31t-30 -85q0 -55 29.5 -87t78.5 -32q60 0 108 34l6 -2v-81q-45 -34 -121 -34 q-94 0 -151 55t-57 147q0 61 26.5 106.5z" glyph-name="copyright"/>
<glyph unicode="ª" horiz-adv-x="486" d="M187 234q-66 0 -107.5 33t-41.5 98q0 67 45.5 96.5t133.5 41.5l89 12q0 50 -21.5 70t-72.5 20q-41 0 -72 -8.5t-62 -25.5l-5 2v89q59 36 158 36q95 0 143 -42.5t48 -137.5v-274h-102l-8 51q-44 -61 -125 -61zM306 444l-63 -9q-50 -8 -72 -22.5t-22 -42.5 q0 -26 16.5 -40.5t48.5 -14.5q60 0 92 46v83z" glyph-name="ordfeminine"/>
<glyph unicode="«" horiz-adv-x="439" d="M132 442h100l-101 -182l99 -181h-101l-102 181zM304 442h100l-101 -182l98 -181h-101l-102 181z" glyph-name="guillemotleft"/>
<glyph unicode="®" horiz-adv-x="610" d="M441 682q62 -35 98 -98t36 -141t-36 -140.5t-98 -98t-137 -35.5t-137 35.5t-98 98t-36 140.5t36 141t98 98t137 35t137 -35zM194 639.5q-49 -29.5 -77 -81.5t-28 -115t28 -114.5t77.5 -81.5t109.5 -30q62 0 111 30t76.5 81.5t27.5 114.5t-27.5 115t-76.5 81.5t-111 29.5 q-61 0 -110 -29.5zM276 407v-95h-73v267h101q56 0 82.5 -21.5t26.5 -64.5q0 -54 -46 -72l60 -106v-3h-75l-53 95h-23zM276 459h24q22 0 31.5 8.5t9.5 26.5q0 16 -9 23t-32 7h-24v-65z" glyph-name="registered"/>
<glyph unicode="¯" horiz-adv-x="425" d="M368 727v-91h-312v91h312z" glyph-name="macron"/>
<glyph unicode="°" horiz-adv-x="452" d="M312 674.5q39 -22.5 61.5 -61.5t22.5 -85t-22.5 -84.5t-61.5 -61t-87 -22.5t-87 22.5t-61 61t-22 84.5t22 85t61 61.5t87 22.5t87 -22.5zM162 596q-25 -28 -25 -68q0 -39 25 -66t63 -27q39 0 63.5 27t24.5 66q0 40 -24.5 68t-63.5 28q-38 0 -63 -28z" glyph-name="degree"/>
<glyph unicode="´" horiz-adv-x="426" d="M220 771h143l-122 -168h-108z" glyph-name="acute"/>
<glyph unicode="¶" horiz-adv-x="588" d="M257 303h-13q-96 0 -149.5 52.5t-53.5 147.5q0 99 53 150.5t150 51.5h103v-835h-90v433zM413 705h89v-835h-89v835z" glyph-name="paragraph"/>
<glyph unicode="·" horiz-adv-x="270" d="M206 390v-128h-144v128h144z" glyph-name="periodcentered"/>
<glyph unicode="¸" horiz-adv-x="425" d="M120 -139q30 -17 59 -17q39 0 39 31q0 17 -16 26t-48 12v92h71v-49q42 -10 63.5 -28t21.5 -60q0 -44 -30 -69t-83 -25q-49 0 -82 20v65z" glyph-name="cedilla"/>
<glyph unicode="º" horiz-adv-x="539" d="M63.5 587q30.5 53 84 82t120.5 29t120.5 -29t84.5 -82t31 -122t-31 -122t-84.5 -82.5t-120.5 -29.5t-120.5 29.5t-84 82.5t-30.5 122t30.5 122zM355 569q-33 38 -87 38q-53 0 -85.5 -38t-32.5 -104t32.5 -104t85.5 -38q54 0 87 38t33 104t-33 104z" glyph-name="ordmasculine"/>
<glyph unicode="»" horiz-adv-x="439" d="M34 442h101l104 -182l-102 -181h-101l99 181zM205 442h102l104 -182l-102 -181h-101l99 181z" glyph-name="guillemotright"/>
<glyph unicode="¼" horiz-adv-x="775" d="M98 587l-72 -44l-2 1v87l99 59h76v-381h-101v278zM683 690l-526 -690h-87l525 690h88zM697 0h-97v83h-169v55l168 244h98v-229h53v-70h-53v-83zM517 153h83v120z" glyph-name="onequarter"/>
<glyph unicode="½" horiz-adv-x="794" d="M606 173q25 27 36 47t11 42q0 21 -14.5 33t-43.5 12q-27 0 -46.5 -6.5t-42.5 -21.5l-4 3v77q43 28 115 28q64 0 100 -30t36 -85q0 -39 -17 -69.5t-53 -68.5l-58 -60h134v-74h-261v60zM98 587l-72 -44l-2 1v87l99 59h76v-381h-101v278zM685 690l-526 -690h-87l525 690h88z " glyph-name="onehalf"/>
<glyph unicode="¾" horiz-adv-x="801" d="M724 0h-97v83h-169v55l168 244h98v-229h53v-70h-53v-83zM544 153h83v120zM710 690l-526 -690h-87l525 690h88zM30 408l3 3q25 -16 49 -23.5t57 -7.5q30 0 45 12t15 34q0 45 -62 45h-45v66h40q56 0 56 41q0 42 -57 42q-28 0 -47 -6t-43 -19l-4 2v73q21 13 47 19.5t66 6.5 q60 0 98 -26.5t38 -76.5q0 -63 -66 -83q79 -18 79 -92q0 -55 -38 -85.5t-108 -30.5q-44 0 -72 8t-51 22v76z" glyph-name="threequarters"/>
<glyph unicode="¿" horiz-adv-x="486" d="M208 442v128h144v-128h-144zM108 -101q-58 47 -58 135q0 62 26 105.5t79 86.5q34 28 48.5 49t14.5 53v23h124v-26q0 -57 -20.5 -93t-70.5 -78q-34 -28 -48.5 -51.5t-14.5 -59.5q0 -35 23 -56t69 -21t80 12t73 38l5 -3v-115q-69 -46 -176 -46q-96 0 -154 47z" glyph-name="questiondown"/>
<glyph unicode="À" horiz-adv-x="700" d="M206 157l-55 -157h-133v7l262 698h140l262 -698v-7h-151l-55 157h-270zM243 263h196l-98 279zM331 910l83 -150h-109l-116 150h142z" glyph-name="Agrave"/>
<glyph unicode="Á" horiz-adv-x="700" d="M206 157l-55 -157h-133v7l262 698h140l262 -698v-7h-151l-55 157h-270zM243 263h196l-98 279zM372 910h142l-116 -150h-110z" glyph-name="Aacute"/>
<glyph unicode="Â" horiz-adv-x="700" d="M206 157l-55 -157h-133v7l262 698h140l262 -698v-7h-151l-55 157h-270zM243 263h196l-98 279zM169 760l125 158h110l125 -158h-110l-70 76l-70 -76h-110z" glyph-name="Acircumflex"/>
<glyph unicode="Ã" horiz-adv-x="700" d="M206 157l-55 -157h-133v7l262 698h140l262 -698v-7h-151l-55 157h-270zM243 263h196l-98 279zM503 896l12 -82q-14 -22 -41 -37.5t-60 -15.5q-24 0 -43 5t-44 15q-13 5 -26.5 9.5t-26.5 4.5q-26 0 -44.5 -9.5t-37.5 -32.5l-6 3l-12 84q15 22 43 36t60 14q23 0 41 -5 t42 -14q36 -15 60 -15q22 0 40 10t36 32z" glyph-name="Atilde"/>
<glyph unicode="Ä" horiz-adv-x="700" d="M206 157l-55 -157h-133v7l262 698h140l262 -698v-7h-151l-55 157h-270zM243 263h196l-98 279zM304 870v-114h-127v114h127zM523 870v-114h-127v114h127z" glyph-name="Adieresis"/>
<glyph unicode="Å" horiz-adv-x="700" d="M206 157l-55 -157h-133v7l262 698h140l262 -698v-7h-151l-55 157h-270zM243 263h196l-98 279zM265 937q32 31 84 31t84 -31t32 -81t-32 -81t-84 -31t-84 31t-32 81t32 81zM315 821q13 -14 34 -14t34 14t13 35q0 22 -13 36t-34 14t-34 -14t-13 -36q0 -21 13 -35z" glyph-name="Aring"/>
<glyph unicode="Æ" horiz-adv-x="947" d="M236 157l-87 -157h-134v7l390 698h480v-112h-276v-177h237v-106h-237v-198h278v-112h-423v157h-228zM294 263h170v308z" glyph-name="AE"/>
<glyph unicode="Ç" horiz-adv-x="686" d="M284 -141l5 2q30 -17 59 -17q39 0 39 31q0 17 -16 26t-48 12v85q-85 19 -148.5 69.5t-98 124.5t-34.5 163q0 106 48 188.5t134 128.5t195 46q66 0 111.5 -10t86.5 -31v-126l-5 -3q-39 27 -81.5 40.5t-98.5 13.5q-72 0 -126 -30t-83.5 -86t-29.5 -131t30 -132t86 -88 t130 -31q60 0 104 16.5t87 51.5l6 -3v-125q-39 -27 -87.5 -42t-122.5 -15q-22 0 -32 1v-32q42 -10 63.5 -28t21.5 -60q0 -44 -30 -69t-83 -25q-49 0 -82 20v65z" glyph-name="Ccedilla"/>
<glyph unicode="È" horiz-adv-x="564" d="M275 910l83 -150h-109l-116 150h142zM502 705v-112h-276v-175h238v-110h-238v-196h279v-112h-424v705h421z" glyph-name="Egrave"/>
<glyph unicode="É" horiz-adv-x="564" d="M317 910h142l-116 -150h-110zM502 705v-112h-276v-175h238v-110h-238v-196h279v-112h-424v705h421z" glyph-name="Eacute"/>
<glyph unicode="Ê" horiz-adv-x="564" d="M114 760l125 158h110l125 -158h-110l-70 76l-70 -76h-110zM502 705v-112h-276v-175h238v-110h-238v-196h279v-112h-424v705h421z" glyph-name="Ecircumflex"/>
<glyph unicode="Ë" horiz-adv-x="564" d="M502 705v-112h-276v-175h238v-110h-238v-196h279v-112h-424v705h421zM248 870v-114h-127v114h127zM467 870v-114h-127v114h127z" glyph-name="Edieresis"/>
<glyph unicode="Ì" horiz-adv-x="313" d="M230 705v-705h-147v705h147zM137 910l83 -150h-109l-116 150h142z" glyph-name="Igrave"/>
<glyph unicode="Í" horiz-adv-x="313" d="M230 705v-705h-147v705h147zM179 910h142l-116 -150h-110z" glyph-name="Iacute"/>
<glyph unicode="Î" horiz-adv-x="313" d="M230 705v-705h-147v705h147zM-24 760l125 158h110l125 -158h-110l-70 76l-70 -76h-110z" glyph-name="Icircumflex"/>
<glyph unicode="Ï" horiz-adv-x="313" d="M124 872v-112h-120v112h120zM309 872v-112h-120v112h120zM230 705v-705h-147v705h147z" glyph-name="Idieresis"/>
<glyph unicode="Ð" horiz-adv-x="751" d="M20 308v103h70v294h217q182 0 291.5 -89t109.5 -268t-108.5 -263.5t-292.5 -84.5h-217v308h-70zM236 113h62q126 0 193.5 53t67.5 182q0 128 -69 186t-192 58h-62v-181h162v-103h-162v-195z" glyph-name="Eth"/>
<glyph unicode="Ñ" horiz-adv-x="770" d="M553 896l12 -82q-14 -22 -41 -37.5t-60 -15.5q-24 0 -43 5t-44 15q-13 5 -26.5 9.5t-26.5 4.5q-26 0 -44.5 -9.5t-37.5 -32.5l-6 3l-12 84q15 22 43 36t60 14q23 0 41 -5t42 -14q36 -15 60 -15q22 0 40 10t36 32zM212 0h-131v705h145l331 -462v462h131v-705h-123 l-353 493v-493z" glyph-name="Ntilde"/>
<glyph unicode="Ò" horiz-adv-x="810" d="M385 910l83 -150h-109l-116 150h142zM88 541q46 83 128.5 130t188.5 47t188 -47t128 -130t46 -186t-46 -187t-128.5 -132.5t-187.5 -48.5q-106 0 -188.5 48.5t-128.5 132.5t-46 187t46 186zM591 487q-26 56 -74 86.5t-112 30.5t-112 -30.5t-74 -86.5t-26 -132t26 -133.5 t74 -89t112 -31.5t112 31.5t74 89t26 133.5t-26 132z" glyph-name="Ograve"/>
<glyph unicode="Ó" horiz-adv-x="810" d="M427 910h142l-116 -150h-110zM88 541q46 83 128.5 130t188.5 47t188 -47t128 -130t46 -186t-46 -187t-128.5 -132.5t-187.5 -48.5q-106 0 -188.5 48.5t-128.5 132.5t-46 187t46 186zM591 487q-26 56 -74 86.5t-112 30.5t-112 -30.5t-74 -86.5t-26 -132t26 -133.5t74 -89 t112 -31.5t112 31.5t74 89t26 133.5t-26 132z" glyph-name="Oacute"/>
<glyph unicode="Ô" horiz-adv-x="810" d="M224 760l125 158h110l125 -158h-110l-70 76l-70 -76h-110zM88 541q46 83 128.5 130t188.5 47t188 -47t128 -130t46 -186t-46 -187t-128.5 -132.5t-187.5 -48.5q-106 0 -188.5 48.5t-128.5 132.5t-46 187t46 186zM591 487q-26 56 -74 86.5t-112 30.5t-112 -30.5t-74 -86.5 t-26 -132t26 -133.5t74 -89t112 -31.5t112 31.5t74 89t26 133.5t-26 132z" glyph-name="Ocircumflex"/>
<glyph unicode="Õ" horiz-adv-x="810" d="M557 896l12 -82q-14 -22 -41 -37.5t-60 -15.5q-24 0 -43 5t-44 15q-13 5 -26.5 9.5t-26.5 4.5q-26 0 -44.5 -9.5t-37.5 -32.5l-6 3l-12 84q15 22 43 36t60 14q23 0 41 -5t42 -14q36 -15 60 -15q22 0 40 10t36 32zM88 541q46 83 128.5 130t188.5 47t188 -47t128 -130 t46 -186t-46 -187t-128.5 -132.5t-187.5 -48.5q-106 0 -188.5 48.5t-128.5 132.5t-46 187t46 186zM591 487q-26 56 -74 86.5t-112 30.5t-112 -30.5t-74 -86.5t-26 -132t26 -133.5t74 -89t112 -31.5t112 31.5t74 89t26 133.5t-26 132z" glyph-name="Otilde"/>
<glyph unicode="Ö" horiz-adv-x="810" d="M358 870v-114h-127v114h127zM577 870v-114h-127v114h127zM88 541q46 83 128.5 130t188.5 47t188 -47t128 -130t46 -186t-46 -187t-128.5 -132.5t-187.5 -48.5q-106 0 -188.5 48.5t-128.5 132.5t-46 187t46 186zM591 487q-26 56 -74 86.5t-112 30.5t-112 -30.5t-74 -86.5 t-26 -132t26 -133.5t74 -89t112 -31.5t112 31.5t74 89t26 133.5t-26 132z" glyph-name="Odieresis"/>
<glyph unicode="×" horiz-adv-x="544" d="M127 131l-70 71l145 145l-145 144l71 70l144 -144l144 144l70 -71l-143 -143l144 -145l-71 -70l-144 144z" glyph-name="multiply"/>
<glyph unicode="Ø" horiz-adv-x="810" d="M114 -48l-58 50l81 97q-45 49 -70 115t-25 141q0 103 46 186t128.5 130t188.5 47q116 0 203 -56l72 85l57 -50l-70 -83q48 -49 74 -115.5t26 -143.5q0 -103 -46 -187t-128.5 -132.5t-187.5 -48.5q-119 0 -210 62zM529 567q-51 37 -124 37q-64 0 -112.5 -30.5t-75.5 -86.5 t-27 -132q0 -90 34 -152zM581 510l-307 -367q53 -42 131 -42q65 0 113 31.5t74 89t26 133.5q0 93 -37 155z" glyph-name="Oslash"/>
<glyph unicode="Ù" horiz-adv-x="729" d="M347 910l83 -150h-109l-116 150h142zM72 705h147v-432q0 -81 39.5 -123t110.5 -42q72 0 112.5 42.5t40.5 122.5v432h134v-435q0 -133 -77.5 -207.5t-213.5 -74.5q-138 0 -215.5 73t-77.5 209v435z" glyph-name="Ugrave"/>
<glyph unicode="Ú" horiz-adv-x="729" d="M389 910h142l-116 -150h-110zM72 705h147v-432q0 -81 39.5 -123t110.5 -42q72 0 112.5 42.5t40.5 122.5v432h134v-435q0 -133 -77.5 -207.5t-213.5 -74.5q-138 0 -215.5 73t-77.5 209v435z" glyph-name="Uacute"/>
<glyph unicode="Û" horiz-adv-x="729" d="M186 760l125 158h110l125 -158h-110l-70 76l-70 -76h-110zM72 705h147v-432q0 -81 39.5 -123t110.5 -42q72 0 112.5 42.5t40.5 122.5v432h134v-435q0 -133 -77.5 -207.5t-213.5 -74.5q-138 0 -215.5 73t-77.5 209v435z" glyph-name="Ucircumflex"/>
<glyph unicode="Ü" horiz-adv-x="729" d="M72 705h147v-432q0 -81 39.5 -123t110.5 -42q72 0 112.5 42.5t40.5 122.5v432h134v-435q0 -133 -77.5 -207.5t-213.5 -74.5q-138 0 -215.5 73t-77.5 209v435zM321 870v-114h-127v114h127zM540 870v-114h-127v114h127z" glyph-name="Udieresis"/>
<glyph unicode="Ý" horiz-adv-x="633" d="M244 284l-226 414v7h152l154 -304l154 304h135v-7l-222 -408v-290h-147v284zM349 910h142l-116 -150h-110z" glyph-name="Yacute"/>
<glyph unicode="Þ" horiz-adv-x="625" d="M226 0h-145v705h145v-128h104q124 0 191 -53.5t67 -162.5q0 -105 -65.5 -158t-181.5 -53h-115v-150zM226 254h105q63 0 90 27.5t27 82.5q0 54 -28 78t-93 24h-101v-212z" glyph-name="Thorn"/>
<glyph unicode="ß" horiz-adv-x="624" d="M305.5 101.5q23.5 -8.5 56.5 -8.5q40 0 67 19.5t27 55.5q0 30 -22.5 51.5t-66.5 49.5q-48 30 -72 54t-24 59q0 29 15.5 49t46.5 46q32 27 48 48t16 50q0 35 -24.5 57t-64.5 22q-47 0 -76.5 -28t-29.5 -87v-539h-135v529q0 116 66.5 171t176.5 55q64 0 114 -21.5t78.5 -61 t28.5 -90.5q0 -46 -22.5 -76.5t-62.5 -63.5q-22 -18 -31.5 -28.5t-9.5 -21.5q0 -12 13 -23t44 -30q39 -24 65.5 -45t46 -54t19.5 -77q0 -84 -55.5 -130t-143.5 -46q-85 0 -138 30v103l5 3q21 -13 44.5 -21.5z" glyph-name="germandbls"/>
<glyph unicode="à" d="M216 -13q-80 0 -130 41.5t-50 117.5q0 78 54 115t161 53l107 15v2q0 62 -27.5 86.5t-89.5 24.5q-48 0 -84 -10t-74 -30l-6 2v103q68 42 183 42q114 0 172.5 -50.5t58.5 -163.5v-335h-115l-10 60q-52 -73 -150 -73zM358 243l-78 -12q-62 -9 -87.5 -26.5t-25.5 -52.5 q0 -33 20.5 -51.5t61.5 -18.5q69 0 109 52v109zM249 771l87 -168h-108l-122 168h143z" glyph-name="agrave"/>
<glyph unicode="á" d="M216 -13q-80 0 -130 41.5t-50 117.5q0 78 54 115t161 53l107 15v2q0 62 -27.5 86.5t-89.5 24.5q-48 0 -84 -10t-74 -30l-6 2v103q68 42 183 42q114 0 172.5 -50.5t58.5 -163.5v-335h-115l-10 60q-52 -73 -150 -73zM358 243l-78 -12q-62 -9 -87.5 -26.5t-25.5 -52.5 q0 -33 20.5 -51.5t61.5 -18.5q69 0 109 52v109zM291 771h143l-122 -168h-108z" glyph-name="aacute"/>
<glyph unicode="â" d="M216 -13q-80 0 -130 41.5t-50 117.5q0 78 54 115t161 53l107 15v2q0 62 -27.5 86.5t-89.5 24.5q-48 0 -84 -10t-74 -30l-6 2v103q68 42 183 42q114 0 172.5 -50.5t58.5 -163.5v-335h-115l-10 60q-52 -73 -150 -73zM358 243l-78 -12q-62 -9 -87.5 -26.5t-25.5 -52.5 q0 -33 20.5 -51.5t61.5 -18.5q69 0 109 52v109zM94 603l122 161h104l123 -161h-109l-66 78l-66 -78h-108z" glyph-name="acircumflex"/>
<glyph unicode="ã" d="M216 -13q-80 0 -130 41.5t-50 117.5q0 78 54 115t161 53l107 15v2q0 62 -27.5 86.5t-89.5 24.5q-48 0 -84 -10t-74 -30l-6 2v103q68 42 183 42q114 0 172.5 -50.5t58.5 -163.5v-335h-115l-10 60q-52 -73 -150 -73zM358 243l-78 -12q-62 -9 -87.5 -26.5t-25.5 -52.5 q0 -33 20.5 -51.5t61.5 -18.5q69 0 109 52v109zM416 758l12 -82q-14 -22 -40.5 -37.5t-58.5 -15.5q-25 0 -43 5t-39 14q-30 14 -50 14q-25 0 -42.5 -9.5t-36.5 -32.5l-6 3l-12 83q16 22 42.5 36.5t56.5 14.5q21 0 37 -4t28 -8.5t15 -5.5q17 -8 29 -11.5t27 -3.5 q21 0 38.5 10t35.5 32z" glyph-name="atilde"/>
<glyph unicode="ä" d="M216 -13q-80 0 -130 41.5t-50 117.5q0 78 54 115t161 53l107 15v2q0 62 -27.5 86.5t-89.5 24.5q-48 0 -84 -10t-74 -30l-6 2v103q68 42 183 42q114 0 172.5 -50.5t58.5 -163.5v-335h-115l-10 60q-52 -73 -150 -73zM358 243l-78 -12q-62 -9 -87.5 -26.5t-25.5 -52.5 q0 -33 20.5 -51.5t61.5 -18.5q69 0 109 52v109zM233 739v-115h-123v115h123zM428 739v-115h-123v115h123z" glyph-name="adieresis"/>
<glyph unicode="å" d="M216 -13q-80 0 -130 41.5t-50 117.5q0 78 54 115t161 53l107 15v2q0 62 -27.5 86.5t-89.5 24.5q-48 0 -84 -10t-74 -30l-6 2v103q68 42 183 42q114 0 172.5 -50.5t58.5 -163.5v-335h-115l-10 60q-52 -73 -150 -73zM358 243l-78 -12q-62 -9 -87.5 -26.5t-25.5 -52.5 q0 -33 20.5 -51.5t61.5 -18.5q69 0 109 52v109zM184 781q32 31 84 31t84 -31t32 -81t-32 -81t-84 -31t-84 31t-32 81t32 81zM234 665q13 -14 34 -14t34 14t13 35q0 22 -13 36t-34 14t-34 -14t-13 -36q0 -21 13 -35z" glyph-name="aring"/>
<glyph unicode="æ" horiz-adv-x="890" d="M515.5 10q-58.5 23 -96.5 67q-67 -90 -194 -90q-85 0 -136 40.5t-51 116.5q0 78 55.5 116t158.5 52l108 15v2q0 64 -28 88.5t-93 24.5q-46 0 -81.5 -10t-73.5 -30l-5 2v103q68 42 183 42q68 0 112.5 -18t68.5 -56q65 74 177 74q106 0 169.5 -63.5t63.5 -192.5 q0 -14 -2 -48h-363q6 -78 49 -115.5t124 -37.5q52 0 93 12t79 34l6 -3v-105q-31 -18 -79 -30.5t-109 -12.5q-77 0 -135.5 23zM726 333q-3 58 -29.5 88.5t-76.5 30.5q-52 0 -84.5 -30t-43.5 -89h234zM358 240l-77 -12q-62 -9 -87.5 -25.5t-25.5 -51.5q0 -32 20.5 -50.5 t59.5 -18.5q46 0 78.5 19.5t47.5 56.5q-13 42 -16 82z" glyph-name="ae"/>
<glyph unicode="ç" horiz-adv-x="519" d="M183 -141l5 2q30 -17 59 -17q19 0 29 8t10 23q0 17 -16 26t-48 12v88q-87 26 -136 95.5t-49 172.5q0 87 36.5 150.5t100.5 96.5t145 33q48 0 86 -9.5t61 -23.5v-104l-5 -3q-63 36 -129 36q-69 0 -114 -46t-45 -130q0 -86 43.5 -132.5t117.5 -46.5q42 0 75 11.5t64 32.5 l6 -2v-101q-59 -44 -156 -44q-18 0 -30 1v-32q42 -10 63.5 -28t21.5 -60q0 -44 -30.5 -69t-82.5 -25q-49 0 -82 20v65z" glyph-name="ccedilla"/>
<glyph unicode="è" horiz-adv-x="570" d="M113 62q-76 75 -76 209q0 82 33 145t92.5 98t136.5 35q107 0 170.5 -63.5t63.5 -193.5q0 -15 -2 -49h-364q7 -77 50.5 -114t123.5 -37q52 0 93 12t79 34l6 -3v-105q-31 -18 -79 -30.5t-109 -12.5q-142 0 -218 75zM405 333q-3 58 -29.5 88.5t-76.5 30.5q-52 0 -84.5 -30 t-43.5 -89h234zM275 771l87 -168h-108l-122 168h143z" glyph-name="egrave"/>
<glyph unicode="é" horiz-adv-x="570" d="M316 771h143l-122 -168h-108zM113 62q-76 75 -76 209q0 82 33 145t92.5 98t136.5 35q107 0 170.5 -63.5t63.5 -193.5q0 -15 -2 -49h-364q7 -77 50.5 -114t123.5 -37q52 0 93 12t79 34l6 -3v-105q-31 -18 -79 -30.5t-109 -12.5q-142 0 -218 75zM405 333q-3 58 -29.5 88.5 t-76.5 30.5q-52 0 -84.5 -30t-43.5 -89h234z" glyph-name="eacute"/>
<glyph unicode="ê" horiz-adv-x="570" d="M119 603l122 161h104l123 -161h-109l-66 78l-66 -78h-108zM113 62q-76 75 -76 209q0 82 33 145t92.5 98t136.5 35q107 0 170.5 -63.5t63.5 -193.5q0 -15 -2 -49h-364q7 -77 50.5 -114t123.5 -37q52 0 93 12t79 34l6 -3v-105q-31 -18 -79 -30.5t-109 -12.5q-142 0 -218 75 zM405 333q-3 58 -29.5 88.5t-76.5 30.5q-52 0 -84.5 -30t-43.5 -89h234z" glyph-name="ecircumflex"/>
<glyph unicode="ë" horiz-adv-x="570" d="M258 739v-115h-123v115h123zM453 739v-115h-123v115h123zM113 62q-76 75 -76 209q0 82 33 145t92.5 98t136.5 35q107 0 170.5 -63.5t63.5 -193.5q0 -15 -2 -49h-364q7 -77 50.5 -114t123.5 -37q52 0 93 12t79 34l6 -3v-105q-31 -18 -79 -30.5t-109 -12.5q-142 0 -218 75z M405 333q-3 58 -29.5 88.5t-76.5 30.5q-52 0 -84.5 -30t-43.5 -89h234z" glyph-name="edieresis"/>
<glyph unicode="ì" horiz-adv-x="276" d="M204 537v-537h-133v537h133zM119 771l87 -168h-108l-122 168h143z" glyph-name="igrave"/>
<glyph unicode="í" horiz-adv-x="276" d="M160 771h143l-122 -168h-108zM204 537v-537h-133v537h133z" glyph-name="iacute"/>
<glyph unicode="î" horiz-adv-x="276" d="M-37 603l122 161h104l123 -161h-109l-66 78l-66 -78h-108zM204 537v-537h-133v537h133z" glyph-name="icircumflex"/>
<glyph unicode="ï" horiz-adv-x="276" d="M110 736v-113h-112v113h112zM277 736v-113h-113v113h113zM204 537v-537h-133v537h133z" glyph-name="idieresis"/>
<glyph unicode="ð" horiz-adv-x="635" d="M69.5 418.5q32.5 62.5 88 95.5t122.5 33q79 0 134 -46q-37 60 -117 118l-144 -58l-25 56l108 44l-78 49l-47 29l2 5h178q30 -16 60 -36l107 43l25 -56l-73 -30q186 -146 186 -354q0 -165 -77 -244.5t-203 -79.5q-80 0 -143.5 34.5t-99.5 99t-36 150.5q0 85 32.5 147.5z M453 397q-26 26 -61 39.5t-74 13.5q-67 0 -107 -48t-40 -134q0 -85 40 -131.5t105 -46.5q146 0 146 202q0 57 -9 105z" glyph-name="eth"/>
<glyph unicode="ñ" horiz-adv-x="599" d="M200 0h-133v537h117l9 -64q36 35 75.5 55.5t93.5 20.5q81 0 127 -45.5t46 -135.5v-368h-133v344q0 98 -90 98q-33 0 -59.5 -9.5t-52.5 -29.5v-403zM449 758l12 -82q-14 -22 -40.5 -37.5t-58.5 -15.5q-25 0 -43 5t-39 14q-30 14 -50 14q-25 0 -42.5 -9.5t-36.5 -32.5l-6 3 l-12 83q16 22 42.5 36.5t56.5 14.5q21 0 37 -4t28 -8.5t15 -5.5q17 -8 29 -11.5t27 -3.5q21 0 38.5 10t35.5 32z" glyph-name="ntilde"/>
<glyph unicode="ò" horiz-adv-x="637" d="M73.5 417.5q36.5 63.5 100 97.5t143.5 34q81 0 145 -34t101 -97.5t37 -148.5q0 -84 -37 -148t-101.5 -99t-144.5 -35t-143.5 35t-100 99t-36.5 148q0 85 36.5 148.5zM424.5 400q-40.5 47 -107.5 47q-65 0 -105.5 -47t-40.5 -131q0 -85 40 -132t106 -47q67 0 107.5 47 t40.5 132q0 84 -40.5 131zM299 771l87 -168h-108l-122 168h143z" glyph-name="ograve"/>
<glyph unicode="ó" horiz-adv-x="637" d="M341 771h143l-122 -168h-108zM73.5 417.5q36.5 63.5 100 97.5t143.5 34q81 0 145 -34t101 -97.5t37 -148.5q0 -84 -37 -148t-101.5 -99t-144.5 -35t-143.5 35t-100 99t-36.5 148q0 85 36.5 148.5zM424.5 400q-40.5 47 -107.5 47q-65 0 -105.5 -47t-40.5 -131 q0 -85 40 -132t106 -47q67 0 107.5 47t40.5 132q0 84 -40.5 131z" glyph-name="oacute"/>
<glyph unicode="ô" horiz-adv-x="637" d="M144 603l122 161h104l123 -161h-109l-66 78l-66 -78h-108zM73.5 417.5q36.5 63.5 100 97.5t143.5 34q81 0 145 -34t101 -97.5t37 -148.5q0 -84 -37 -148t-101.5 -99t-144.5 -35t-143.5 35t-100 99t-36.5 148q0 85 36.5 148.5zM424.5 400q-40.5 47 -107.5 47 q-65 0 -105.5 -47t-40.5 -131q0 -85 40 -132t106 -47q67 0 107.5 47t40.5 132q0 84 -40.5 131z" glyph-name="ocircumflex"/>
<glyph unicode="õ" horiz-adv-x="637" d="M73.5 417.5q36.5 63.5 100 97.5t143.5 34q81 0 145 -34t101 -97.5t37 -148.5q0 -84 -37 -148t-101.5 -99t-144.5 -35t-143.5 35t-100 99t-36.5 148q0 85 36.5 148.5zM424.5 400q-40.5 47 -107.5 47q-65 0 -105.5 -47t-40.5 -131q0 -85 40 -132t106 -47q67 0 107.5 47 t40.5 132q0 84 -40.5 131zM466 758l12 -82q-14 -22 -40.5 -37.5t-58.5 -15.5q-25 0 -43 5t-39 14q-30 14 -50 14q-25 0 -42.5 -9.5t-36.5 -32.5l-6 3l-12 83q16 22 42.5 36.5t56.5 14.5q21 0 37 -4t28 -8.5t15 -5.5q17 -8 29 -11.5t27 -3.5q21 0 38.5 10t35.5 32z" glyph-name="otilde"/>
<glyph unicode="ö" horiz-adv-x="637" d="M283 739v-115h-123v115h123zM478 739v-115h-123v115h123zM73.5 417.5q36.5 63.5 100 97.5t143.5 34q81 0 145 -34t101 -97.5t37 -148.5q0 -84 -37 -148t-101.5 -99t-144.5 -35t-143.5 35t-100 99t-36.5 148q0 85 36.5 148.5zM424.5 400q-40.5 47 -107.5 47 q-65 0 -105.5 -47t-40.5 -131q0 -85 40 -132t106 -47q67 0 107.5 47t40.5 132q0 84 -40.5 131z" glyph-name="odieresis"/>
<glyph unicode="÷" d="M344 592v-123h-134v123h134zM496 395v-98h-438v98h438zM344 223v-123h-134v123h134z" glyph-name="divide"/>
<glyph unicode="ø" horiz-adv-x="637" d="M102 -40l-51 42l58 70q-34 37 -53 87t-19 110q0 85 36.5 148.5t100 97.5t143.5 34q85 0 154 -39l60 72l51 -41l-59 -71q37 -37 57 -88t20 -113q0 -84 -37 -148t-101.5 -99t-144.5 -35q-89 0 -157 43zM400 424q-35 23 -83 23q-65 0 -105.5 -47t-40.5 -131q0 -58 19 -99z M444 374l-213 -258q37 -26 86 -26q67 0 108 47t41 132q0 61 -22 105z" glyph-name="oslash"/>
<glyph unicode="ù" horiz-adv-x="605" d="M242 -13q-83 0 -131.5 46.5t-48.5 135.5v368h133v-345q0 -97 93 -97q34 0 62 9t54 28v405h133v-537h-117l-9 60q-75 -73 -169 -73zM283 771l87 -168h-108l-122 168h143z" glyph-name="ugrave"/>
<glyph unicode="ú" horiz-adv-x="605" d="M324 771h143l-122 -168h-108zM242 -13q-83 0 -131.5 46.5t-48.5 135.5v368h133v-345q0 -97 93 -97q34 0 62 9t54 28v405h133v-537h-117l-9 60q-75 -73 -169 -73z" glyph-name="uacute"/>
<glyph unicode="û" horiz-adv-x="605" d="M127 603l122 161h104l123 -161h-109l-66 78l-66 -78h-108zM242 -13q-83 0 -131.5 46.5t-48.5 135.5v368h133v-345q0 -97 93 -97q34 0 62 9t54 28v405h133v-537h-117l-9 60q-75 -73 -169 -73z" glyph-name="ucircumflex"/>
<glyph unicode="ü" horiz-adv-x="605" d="M266 739v-115h-123v115h123zM461 739v-115h-123v115h123zM242 -13q-83 0 -131.5 46.5t-48.5 135.5v368h133v-345q0 -97 93 -97q34 0 62 9t54 28v405h133v-537h-117l-9 60q-75 -73 -169 -73z" glyph-name="udieresis"/>
<glyph unicode="ý" horiz-adv-x="565" d="M155.5 -78.5q27.5 18.5 41.5 53.5l20 50l-199 505v7h141l131 -358l128 358h127v-7l-217 -577q-32 -86 -88 -123t-162 -44v111q50 6 77.5 24.5zM313 771h143l-122 -168h-108z" glyph-name="yacute"/>
<glyph unicode="þ" horiz-adv-x="629" d="M201 -201h-134v928l134 27v-276q58 71 157 71q69 0 121.5 -32t82 -94t29.5 -149q0 -89 -30.5 -154t-84.5 -99t-124 -34q-92 0 -151 65v-253zM419.5 401q-36.5 42 -95.5 42q-42 0 -70.5 -12.5t-52.5 -38.5v-256q24 -23 52 -34t68 -11q61 0 98 47t37 136q0 85 -36.5 127z " glyph-name="thorn"/>
<glyph unicode="ı" horiz-adv-x="276" d="M204 537v-537h-133v537h133z" glyph-name="dotlessi"/>
<glyph unicode="ˆ" horiz-adv-x="425" d="M38 603l122 161h104l123 -161h-109l-66 78l-66 -78h-108z" glyph-name="circumflex"/>
<glyph unicode="˚" horiz-adv-x="425" d="M128 781q32 31 84 31t84 -31t32 -81t-32 -81t-84 -31t-84 31t-32 81t32 81zM178 665q13 -14 34 -14t34 14t13 35q0 22 -13 36t-34 14t-34 -14t-13 -36q0 -21 13 -35z" glyph-name="ring"/>
<glyph unicode="˜" horiz-adv-x="416" d="M352 758l12 -82q-14 -22 -40.5 -37.5t-58.5 -15.5q-25 0 -43 5t-39 14q-30 14 -50 14q-25 0 -42.5 -9.5t-36.5 -32.5l-6 3l-12 83q16 22 42.5 36.5t56.5 14.5q21 0 37 -4t28 -8.5t15 -5.5q17 -8 29 -11.5t27 -3.5q21 0 38.5 10t35.5 32z" glyph-name="tilde"/>
<glyph unicode="⁄" horiz-adv-x="158" d="M385 690l-526 -690h-87l525 690h88z" glyph-name="fraction"/>
<glyph horiz-adv-x="328" d="M138 173q25 27 36 47t11 42q0 21 -14.5 33t-43.5 12q-27 0 -46.5 -6.5t-42.5 -21.5l-4 3v77q43 28 115 28q64 0 100 -30t36 -85q0 -39 -17 -69.5t-53 -68.5l-58 -60h134v-74h-261v60z" glyph-name="two.den"/>
<glyph horiz-adv-x="364" d="M289 0h-97v83h-169v55l168 244h98v-229h53v-70h-53v-83zM109 153h83v120z" glyph-name="four.den"/>
<glyph horiz-adv-x="258" d="M98 587l-72 -44l-2 1v87l99 59h76v-381h-101v278z" glyph-name="one.num"/>
<glyph horiz-adv-x="330" d="M30 408l3 3q25 -16 49 -23.5t57 -7.5q30 0 45 12t15 34q0 45 -62 45h-45v66h40q56 0 56 41q0 42 -57 42q-28 0 -47 -6t-43 -19l-4 2v73q21 13 47 19.5t66 6.5q60 0 98 -26.5t38 -76.5q0 -63 -66 -83q79 -18 79 -92q0 -55 -38 -85.5t-108 -30.5q-44 0 -72 8t-51 22v76z " glyph-name="three.num"/>
<glyph horiz-adv-x="426" d="M236 910h142l-116 -150h-110z" glyph-name="acute.uc"/>
<glyph horiz-adv-x="425" d="M32 760l125 158h110l125 -158h-110l-70 76l-70 -76h-110z" glyph-name="circumflex.uc"/>
<glyph horiz-adv-x="426" d="M166 870v-114h-127v114h127zM385 870v-114h-127v114h127z" glyph-name="dieresis.uc"/>
<glyph horiz-adv-x="425" d="M195 910l83 -150h-109l-116 150h142z" glyph-name="grave.uc"/>
<glyph horiz-adv-x="425" d="M128 937q32 31 84 31t84 -31t32 -81t-32 -81t-84 -31t-84 31t-32 81t32 81zM178 821q13 -14 34 -14t34 14t13 35q0 22 -13 36t-34 14t-34 -14t-13 -36q0 -21 13 -35z" glyph-name="ring.uc"/>
<glyph horiz-adv-x="415" d="M361 896l12 -82q-14 -22 -41 -37.5t-60 -15.5q-24 0 -43 5t-44 15q-13 5 -26.5 9.5t-26.5 4.5q-26 0 -44.5 -9.5t-37.5 -32.5l-6 3l-12 84q15 22 43 36t60 14q23 0 41 -5t42 -14q36 -15 60 -15q22 0 40 10t36 32z" glyph-name="tilde.uc"/>
</font>
</defs>
</svg>
